<svg width="110" height="110" viewBox="0 0 110 110" fill="none" xmlns="http://www.w3.org/2000/svg">
<path d="M46.023 92.4481C45.5455 90.057 44.5608 87.796 43.1353 85.8178C41.7097 83.8396 39.8765 82.1901 37.7592 80.9806C35.7239 79.8244 33.5461 78.9392 31.2813 78.3475C33.3001 76.8317 34.791 74.7192 35.5428 72.3091C36.2946 69.899 36.2692 67.3135 35.4702 64.9187C34.6712 62.5239 33.1391 60.4411 31.0908 58.9652C29.0426 57.4893 26.5819 56.6951 24.0573 56.6951C21.5327 56.6951 19.0721 57.4893 17.0239 58.9652C14.9756 60.4411 13.4435 62.5239 12.6445 64.9187C11.8455 67.3135 11.8201 69.899 12.5719 72.3091C13.3237 74.7192 14.8146 76.8317 16.8334 78.3475C14.5704 78.9396 12.3944 79.8248 10.3606 80.9806C8.24363 82.19 6.41056 83.8392 4.98503 85.8171C3.55949 87.795 2.57464 90.0556 2.09687 92.4464L0.0343739 102.781C-0.0454523 103.179 0.0178984 103.592 0.213223 103.947C0.408548 104.303 0.723264 104.578 1.10172 104.723C15.8797 110.416 32.2453 110.416 47.0233 104.723C47.4017 104.578 47.7164 104.303 47.9118 103.947C48.1071 103.592 48.1705 103.179 48.0906 102.781L46.023 92.4481ZM15.4687 68.75C15.4687 67.0503 15.9728 65.3888 16.9171 63.9756C17.8614 62.5623 19.2035 61.4609 20.7738 60.8104C22.3441 60.16 24.072 59.9898 25.7391 60.3214C27.4061 60.653 28.9373 61.4715 30.1392 62.6733C31.3411 63.8752 32.1595 65.4064 32.4911 67.0735C32.8227 68.7405 32.6525 70.4684 32.0021 72.0387C31.3517 73.609 30.2502 74.9512 28.8369 75.8955C27.4237 76.8397 25.7622 77.3438 24.0625 77.3438C21.7841 77.341 19.5999 76.4347 17.9888 74.8237C16.3778 73.2126 15.4715 71.0284 15.4687 68.75ZM3.69016 102.023L5.4725 93.1202C5.85374 91.2112 6.64003 89.4063 7.77829 87.8271C8.91655 86.248 10.3803 84.9313 12.0708 83.9661C15.7356 81.9177 19.8641 80.8422 24.0625 80.8422C28.2609 80.8422 32.3894 81.9177 36.0542 83.9661C37.745 84.9314 39.2089 86.2483 40.3472 87.8278C41.4855 89.4073 42.2716 91.2126 42.6525 93.1219L44.4348 102.023C31.263 106.741 16.862 106.741 3.69016 102.023Z" fill="white"/>
<path d="M65.2609 44.6411C65.2059 44.4221 65.1083 44.2161 64.9736 44.0349C64.839 43.8537 64.6699 43.7008 64.4762 43.5849C64.2824 43.469 64.0677 43.3925 63.8443 43.3596C63.621 43.3267 63.3933 43.3381 63.1744 43.3933C57.6025 44.7685 51.8183 45.0602 46.1364 44.2526C45.7319 44.1937 45.3197 44.2835 44.9762 44.5053L36.9531 49.6031L38.2181 43.9072C38.3071 43.5071 38.2502 43.0884 38.0576 42.7266C37.865 42.3648 37.5495 42.0837 37.168 41.9341C28.9627 38.7166 24.0625 33.3197 24.0625 27.5C24.0625 21.7851 28.8028 16.4433 36.7417 13.212C36.9508 13.1269 37.1411 13.0015 37.3018 12.8428C37.4624 12.6842 37.5902 12.4955 37.6779 12.2874C37.7656 12.0794 37.8115 11.8561 37.8129 11.6303C37.8143 11.4046 37.7713 11.1807 37.6862 10.9716C37.6011 10.7625 37.4756 10.5722 37.317 10.4116C37.1583 10.2509 36.9696 10.1231 36.7616 10.0354C36.5535 9.9477 36.3303 9.90184 36.1045 9.90042C35.8787 9.89901 35.6549 9.94208 35.4458 10.0272C26.1662 13.805 20.625 20.338 20.625 27.5C20.625 34.4351 25.8002 40.7344 34.5469 44.5689L32.6923 52.9083C32.6181 53.2404 32.6442 53.5871 32.7672 53.9044C32.8902 54.2217 33.1046 54.4954 33.3833 54.6907C33.662 54.886 33.9924 54.9941 34.3327 55.0015C34.6729 55.0088 35.0077 54.915 35.2945 54.7319L46.2945 47.7331C52.2121 48.4994 58.2205 48.1578 64.0131 46.7259C64.455 46.6148 64.8346 46.3327 65.0686 45.9418C65.3026 45.5509 65.3718 45.083 65.2609 44.6411Z" fill="white"/>
<path d="M109.966 102.781L107.903 92.4412C107.426 90.0501 106.441 87.7891 105.015 85.8109C103.59 83.8327 101.757 82.1832 99.6394 80.9737C97.602 79.8195 95.4225 78.9366 93.1562 78.3475C95.1751 76.8316 96.666 74.7191 97.4178 72.3091C98.1696 69.899 98.1442 67.3135 97.3452 64.9187C96.5462 62.5238 95.0141 60.441 92.9658 58.9651C90.9176 57.4893 88.4569 56.6951 85.9323 56.6951C83.4077 56.6951 80.9471 57.4893 78.8989 58.9651C76.8506 60.441 75.3185 62.5238 74.5195 64.9187C73.7205 67.3135 73.6951 69.899 74.4469 72.3091C75.1987 74.7191 76.6896 76.8316 78.7084 78.3475C76.4454 78.9396 74.2694 79.8248 72.2356 80.9806C70.1186 82.19 68.2856 83.8392 66.86 85.8171C65.4345 87.795 64.4496 90.0556 63.9719 92.4464L61.9094 102.781C61.8295 103.179 61.8929 103.592 62.0882 103.947C62.2835 104.303 62.5983 104.578 62.9767 104.723C77.7547 110.416 94.1203 110.416 108.898 104.723C109.277 104.578 109.591 104.303 109.787 103.947C109.982 103.592 110.045 103.179 109.966 102.781ZM77.3437 68.75C77.3437 67.0503 77.8478 65.3888 78.7921 63.9755C79.7363 62.5623 81.0785 61.4608 82.6488 60.8104C84.2191 60.16 85.947 59.9898 87.6141 60.3214C89.2811 60.6529 90.8123 61.4714 92.0142 62.6733C93.2161 63.8751 94.0345 65.4064 94.3661 67.0734C94.6977 68.7404 94.5275 70.4684 93.8771 72.0387C93.2266 73.609 92.1252 74.9511 90.7119 75.8954C89.2987 76.8397 87.6372 77.3437 85.9375 77.3437C83.6591 77.341 81.4749 76.4347 79.8638 74.8237C78.2528 73.2126 77.3465 71.0283 77.3437 68.75ZM65.5652 102.023L67.3475 93.1201C67.7287 91.2112 68.515 89.4062 69.6533 87.8271C70.7916 86.2479 72.2553 84.9313 73.9458 83.9661C77.6106 81.9176 81.7391 80.8422 85.9375 80.8422C90.1359 80.8422 94.2644 81.9176 97.9292 83.9661C99.62 84.9314 101.084 86.2483 102.222 87.8278C103.36 89.4072 104.147 91.2126 104.528 93.1219L106.31 102.023C93.138 106.741 78.737 106.741 65.5652 102.023Z" fill="#9467FE"/>
<path d="M66.9247 41.1538L74.1761 52.4975C74.3598 52.7856 74.6251 53.0123 74.9383 53.1489C75.2515 53.2854 75.5982 53.3256 75.9343 53.2642C76.2704 53.2027 76.5805 53.0425 76.8251 52.804C77.0697 52.5656 77.2377 52.2596 77.3077 51.9252L79.7809 40.1844C92.7661 37.3725 101.406 29.6089 101.406 20.625C101.406 9.25203 87.1406 0 69.6094 0C52.0781 0 37.8125 9.25203 37.8125 20.625C37.8125 31.3638 50.5312 40.2703 66.9247 41.1538ZM69.6094 3.4375C85.25 3.4375 97.9688 11.1478 97.9688 20.625C97.9688 28.0466 89.7617 34.7927 78.0123 37.0288C77.6792 37.092 77.3722 37.2524 77.1299 37.4897C76.8877 37.727 76.7211 38.0307 76.6511 38.3625L74.8086 47.0938L69.3413 38.5447C69.1911 38.3103 68.9863 38.1159 68.7443 37.9782C68.5024 37.8404 68.2307 37.7635 67.9525 37.7541C52.9787 37.2264 41.25 29.7 41.25 20.625C41.25 11.1478 53.9688 3.4375 69.6094 3.4375Z" fill="#9467FE"/>
<path d="M58.4375 12.0312H67.0312V15.4688H58.4375V12.0312Z" fill="#9467FE"/>
<path d="M70.4688 12.0312H73.9062V15.4688H70.4688V12.0312Z" fill="#9467FE"/>
<path d="M77.3438 12.0312H85.9375V15.4688H77.3438V12.0312Z" fill="#9467FE"/>
<path d="M53.2812 18.9062H73.9062V22.3438H53.2812V18.9062Z" fill="#9467FE"/>
<path d="M77.3438 18.9062H85.9375V22.3438H77.3438V18.9062Z" fill="#9467FE"/>
<path d="M53.2812 25.7812H60.1562V29.2188H53.2812V25.7812Z" fill="#9467FE"/>
<path d="M63.5938 25.7812H82.5V29.2188H63.5938V25.7812Z" fill="#9467FE"/>
</svg>
