<svg width="80" height="80" viewBox="0 0 80 80" fill="none" xmlns="http://www.w3.org/2000/svg">
<path d="M17.5 20C18.163 20 18.7989 20.2634 19.2678 20.7322C19.7366 21.2011 20 21.837 20 22.5H22.5C22.4959 21.3947 22.1256 20.322 21.4471 19.4495C20.7686 18.5769 19.8202 17.9538 18.75 17.6775V15H16.25V17.6775C15.073 17.9804 14.047 18.7026 13.3646 19.7083C12.6822 20.714 12.3903 21.9343 12.5437 23.1399C12.6971 24.3456 13.2853 25.4538 14.1979 26.2566C15.1104 27.0594 16.2846 27.5015 17.5 27.5C17.9945 27.5 18.4778 27.6466 18.8889 27.9213C19.3 28.196 19.6205 28.5865 19.8097 29.0433C19.9989 29.5001 20.0484 30.0028 19.952 30.4877C19.8555 30.9727 19.6174 31.4181 19.2678 31.7678C18.9181 32.1174 18.4727 32.3555 17.9877 32.452C17.5028 32.5484 17.0001 32.4989 16.5433 32.3097C16.0865 32.1205 15.696 31.8 15.4213 31.3889C15.1466 30.9778 15 30.4945 15 30H12.5C12.5041 31.1053 12.8744 32.178 13.5529 33.0505C14.2314 33.9231 15.1798 34.5462 16.25 34.8225V37.5H18.75V34.8225C19.927 34.5196 20.953 33.7974 21.6354 32.7917C22.3178 31.786 22.6097 30.5657 22.4563 29.3601C22.3029 28.1544 21.7147 27.0462 20.8021 26.2434C19.8896 25.4406 18.7154 24.9985 17.5 25C16.837 25 16.2011 24.7366 15.7322 24.2678C15.2634 23.7989 15 23.163 15 22.5C15 21.837 15.2634 21.2011 15.7322 20.7322C16.2011 20.2634 16.837 20 17.5 20Z" fill="white"/>
<path d="M62.5 47.5C63.163 47.5 63.7989 47.7634 64.2678 48.2322C64.7366 48.7011 65 49.337 65 50H67.5C67.4959 48.8947 67.1256 47.822 66.4471 46.9495C65.7686 46.0769 64.8202 45.4538 63.75 45.1775V42.5H61.25V45.1775C60.073 45.4804 59.047 46.2026 58.3646 47.2083C57.6822 48.214 57.3903 49.4343 57.5437 50.6399C57.6971 51.8456 58.2853 52.9538 59.1979 53.7566C60.1104 54.5594 61.2846 55.0015 62.5 55C62.9945 55 63.4778 55.1466 63.8889 55.4213C64.3 55.696 64.6205 56.0865 64.8097 56.5433C64.9989 57.0001 65.0484 57.5028 64.952 57.9877C64.8555 58.4727 64.6174 58.9181 64.2678 59.2678C63.9181 59.6174 63.4727 59.8555 62.9877 59.952C62.5028 60.0484 62.0001 59.9989 61.5433 59.8097C61.0865 59.6205 60.696 59.3 60.4213 58.8889C60.1466 58.4778 60 57.9945 60 57.5H57.5C57.5041 58.6053 57.8744 59.678 58.5529 60.5505C59.2314 61.4231 60.1798 62.0462 61.25 62.3225V65H63.75V62.3225C64.927 62.0196 65.953 61.2974 66.6354 60.2917C67.3178 59.286 67.6097 58.0657 67.4563 56.8601C67.3029 55.6544 66.7147 54.5462 65.8021 53.7434C64.8896 52.9406 63.7154 52.4985 62.5 52.5C61.837 52.5 61.2011 52.2366 60.7322 51.7678C60.2634 51.2989 60 50.663 60 50C60 49.337 60.2634 48.7011 60.7322 48.2322C61.2011 47.7634 61.837 47.5 62.5 47.5Z" fill="white"/>
<path d="M62.5 37.5C62.0775 37.5 61.6637 37.5312 61.25 37.5638V30H63.75V33.75C63.75 33.9891 63.8186 34.2231 63.9476 34.4244C64.0766 34.6257 64.2607 34.7858 64.4779 34.8856C64.6951 34.9855 64.9364 35.021 65.1732 34.9878C65.41 34.9547 65.6323 34.8544 65.8138 34.6987L74.5638 27.1988C74.7005 27.0814 74.8103 26.9359 74.8856 26.7721C74.9609 26.6083 74.9999 26.4302 74.9999 26.25C74.9999 26.0698 74.9609 25.8917 74.8856 25.7279C74.8103 25.5641 74.7005 25.4186 74.5638 25.3012L65.8138 17.8013C65.6323 17.6456 65.41 17.5453 65.1732 17.5122C64.9364 17.479 64.6951 17.5145 64.4779 17.6144C64.2607 17.7142 64.0766 17.8743 63.9476 18.0756C63.8186 18.2769 63.75 18.5109 63.75 18.75V22.5H61.25V8.75C61.248 6.76149 60.4572 4.85498 59.0511 3.44889C57.645 2.0428 55.7385 1.25199 53.75 1.25H26.25C24.2615 1.25199 22.355 2.0428 20.9489 3.44889C19.5428 4.85498 18.752 6.76149 18.75 8.75V10.0637C18.3363 10.0312 17.9225 10 17.5 10C13.1902 10 9.05698 11.712 6.00951 14.7595C2.96205 17.807 1.25 21.9402 1.25 26.25C1.25 30.5598 2.96205 34.693 6.00951 37.7405C9.05698 40.788 13.1902 42.5 17.5 42.5C17.9225 42.5 18.3363 42.4688 18.75 42.4363V51.25H16.25V47.5C16.25 47.2609 16.1814 47.0269 16.0524 46.8256C15.9234 46.6243 15.7393 46.4642 15.5221 46.3644C15.3049 46.2645 15.0636 46.229 14.8268 46.2622C14.59 46.2953 14.3677 46.3956 14.1862 46.5513L5.43625 54.0513C5.29945 54.1686 5.18965 54.3141 5.11437 54.4779C5.03909 54.6417 5.00011 54.8198 5.00011 55C5.00011 55.1802 5.03909 55.3583 5.11437 55.5221C5.18965 55.6859 5.29945 55.8314 5.43625 55.9487L14.1862 63.4487C14.3677 63.6044 14.59 63.7047 14.8268 63.7378C15.0636 63.771 15.3049 63.7355 15.5221 63.6356C15.7393 63.5358 15.9234 63.3757 16.0524 63.1744C16.1814 62.9731 16.25 62.7391 16.25 62.5V58.75H18.75V71.25C18.752 73.2385 19.5428 75.145 20.9489 76.5511C22.355 77.9572 24.2615 78.748 26.25 78.75H53.75C55.7385 78.748 57.645 77.9572 59.0511 76.5511C60.4572 75.145 61.248 73.2385 61.25 71.25V69.9362C61.6637 69.9688 62.0775 70 62.5 70C66.8098 70 70.943 68.2879 73.9905 65.2405C77.0379 62.193 78.75 58.0598 78.75 53.75C78.75 49.4402 77.0379 45.307 73.9905 42.2595C70.943 39.2121 66.8098 37.5 62.5 37.5ZM65 25C65.3315 25 65.6495 24.8683 65.8839 24.6339C66.1183 24.3995 66.25 24.0815 66.25 23.75V21.4675L71.8288 26.25L66.25 31.0325V28.75C66.25 28.4185 66.1183 28.1005 65.8839 27.8661C65.6495 27.6317 65.3315 27.5 65 27.5H43.75V25H65ZM50.7325 3.75L48.2325 6.25H31.7675L29.2675 3.75H50.7325ZM3.75 26.25C3.75 23.5305 4.55642 20.8721 6.06729 18.6109C7.57816 16.3497 9.72562 14.5874 12.2381 13.5467C14.7506 12.506 17.5153 12.2337 20.1825 12.7642C22.8497 13.2947 25.2997 14.6043 27.2227 16.5273C29.1457 18.4503 30.4552 20.9003 30.9858 23.5675C31.5163 26.2347 31.244 28.9994 30.2033 31.5119C29.1626 34.0244 27.4003 36.1718 25.1391 37.6827C22.8779 39.1936 20.2195 40 17.5 40C13.8546 39.9957 10.3597 38.5457 7.78203 35.968C5.20434 33.3903 3.7543 29.8954 3.75 26.25ZM15 56.25C14.6685 56.25 14.3505 56.3817 14.1161 56.6161C13.8817 56.8505 13.75 57.1685 13.75 57.5V59.7825L8.17125 55L13.75 50.2175V52.5C13.75 52.8315 13.8817 53.1495 14.1161 53.3839C14.3505 53.6183 14.6685 53.75 15 53.75H36.25V56.25H15ZM48.75 76.25H31.25V75C31.25 74.6685 31.3817 74.3505 31.6161 74.1161C31.8505 73.8817 32.1685 73.75 32.5 73.75H47.5C47.8315 73.75 48.1495 73.8817 48.3839 74.1161C48.6183 74.3505 48.75 74.6685 48.75 75V76.25ZM58.75 71.25C58.75 72.5761 58.2232 73.8479 57.2855 74.7855C56.3479 75.7232 55.0761 76.25 53.75 76.25H51.25V75C51.25 74.0054 50.8549 73.0516 50.1516 72.3484C49.4484 71.6451 48.4946 71.25 47.5 71.25H32.5C31.5054 71.25 30.5516 71.6451 29.8483 72.3484C29.1451 73.0516 28.75 74.0054 28.75 75V76.25H26.25C24.9239 76.25 23.6521 75.7232 22.7145 74.7855C21.7768 73.8479 21.25 72.5761 21.25 71.25V58.75H37.5C37.8315 58.75 38.1495 58.6183 38.3839 58.3839C38.6183 58.1495 38.75 57.8315 38.75 57.5V52.5C38.75 52.1685 38.6183 51.8505 38.3839 51.6161C38.1495 51.3817 37.8315 51.25 37.5 51.25H21.25V42.0462C24.8078 41.2056 27.9777 39.1884 30.2461 36.3215C32.5145 33.4546 33.7487 29.9058 33.7487 26.25C33.7487 22.5942 32.5145 19.0454 30.2461 16.1785C27.9777 13.3116 24.8078 11.2944 21.25 10.4537V8.75C21.254 7.50901 21.7204 6.31405 22.5579 5.39835C23.3955 4.48264 24.5443 3.91189 25.78 3.7975L30.3662 8.38375C30.6006 8.61819 30.9185 8.74993 31.25 8.75H48.75C49.0815 8.74993 49.3994 8.61819 49.6338 8.38375L54.22 3.7975C55.4557 3.91189 56.6045 4.48264 57.4421 5.39835C58.2796 6.31405 58.746 7.50901 58.75 8.75V22.5H42.5C42.1685 22.5 41.8505 22.6317 41.6161 22.8661C41.3817 23.1005 41.25 23.4185 41.25 23.75V28.75C41.25 29.0815 41.3817 29.3995 41.6161 29.6339C41.8505 29.8683 42.1685 30 42.5 30H58.75V37.9538C55.1922 38.7944 52.0223 40.8116 49.7539 43.6785C47.4855 46.5454 46.2513 50.0942 46.2513 53.75C46.2513 57.4058 47.4855 60.9546 49.7539 63.8215C52.0223 66.6884 55.1922 68.7056 58.75 69.5462V71.25ZM62.5 67.5C59.7805 67.5 57.1221 66.6936 54.8609 65.1827C52.5997 63.6718 50.8374 61.5244 49.7967 59.0119C48.756 56.4994 48.4837 53.7347 49.0142 51.0675C49.5447 48.4003 50.8543 45.9503 52.7773 44.0273C54.7003 42.1043 57.1503 40.7947 59.8175 40.2642C62.4847 39.7337 65.2494 40.006 67.7619 41.0467C70.2744 42.0874 72.4218 43.8497 73.9327 46.1109C75.4436 48.3721 76.25 51.0305 76.25 53.75C76.2457 57.3954 74.7957 60.8903 72.218 63.468C69.6403 66.0457 66.1454 67.4957 62.5 67.5Z" fill="white"/>
<path d="M50 17.5H35V20H50V17.5Z" fill="white"/>
<path d="M45 61.25H30V63.75H45V61.25Z" fill="white"/>
<path d="M52.5 12.5H42.5V15H52.5V12.5Z" fill="white"/>
<path d="M47.5 66.0712H37.5V68.5712H47.5V66.0712Z" fill="white"/>
</svg>
