<svg width="60" height="60" viewBox="0 0 60 60" fill="none" xmlns="http://www.w3.org/2000/svg">
<g clip-path="url(#clip0_84_357)">
<path d="M6.39123 41.774L9.99123 45.374V55C9.99282 56.3256 10.5201 57.5965 11.4575 58.5338C12.3948 59.4711 13.6656 59.9984 14.9912 60H55.0002C56.3258 59.9984 57.5967 59.4711 58.534 58.5338C59.4714 57.5965 59.9986 56.3256 60.0002 55V30C59.9964 28.7379 59.5146 27.5241 58.6518 26.6029C57.7891 25.6817 56.6094 25.1215 55.3502 25.035C55.8545 24.0919 56.0437 23.0122 55.8902 21.9539C55.7367 20.8955 55.2486 19.914 54.4972 19.153L41.7632 6.41101L41.7572 6.40001H41.7482L36.8172 1.46301C35.8798 0.527489 34.6096 0.0020752 33.2852 0.0020752C31.9609 0.0020752 30.6906 0.527489 29.7532 1.46301L1.46123 29.766C0.528544 30.7084 0.00537109 31.9807 0.00537109 33.3065C0.00537109 34.6324 0.528544 35.9047 1.46123 36.847L6.39123 41.774ZM36.8102 4.28401L39.6352 7.11101L21.7562 25H16.1002L36.8102 4.28401ZM10.0002 36.756L7.10023 39.656L4.27423 36.83L10.0002 31.1V36.756ZM8.51423 41.07L10.0002 39.584V42.556L8.51423 41.07ZM58.0002 30V55C58.0002 55.7957 57.6842 56.5587 57.1216 57.1213C56.5589 57.6839 55.7959 58 55.0002 58H15.0002C14.2046 58 13.4415 57.6839 12.8789 57.1213C12.3163 56.5587 12.0002 55.7957 12.0002 55V30C12.0002 29.2044 12.3163 28.4413 12.8789 27.8787C13.4415 27.3161 14.2046 27 15.0002 27H55.0002C55.7959 27 56.5589 27.3161 57.1216 27.8787C57.6842 28.4413 58.0002 29.2044 58.0002 30ZM53.0832 24.813L52.9002 25H24.5832L41.0492 8.52601L53.0802 20.564C53.6413 21.1286 53.9564 21.892 53.957 22.6879C53.9576 23.4838 53.6435 24.2477 53.0832 24.813V24.813ZM2.87723 31.177L31.1672 2.87701C31.737 2.33252 32.4944 2.02817 33.2825 2.02706C34.0706 2.02594 34.8289 2.32814 35.4002 2.87101L12.6762 25.6C11.7922 26.0684 11.0691 26.7912 10.6002 27.675L2.86223 35.414C2.3096 34.8464 2.00162 34.0847 2.00442 33.2925C2.00723 32.5002 2.3206 31.7407 2.87723 31.177V31.177Z" fill="url(#paint0_linear_84_357)"/>
<path d="M16 38H22C22.5304 38 23.0391 37.7893 23.4142 37.4142C23.7893 37.0391 24 36.5304 24 36V32C24 31.4696 23.7893 30.9609 23.4142 30.5858C23.0391 30.2107 22.5304 30 22 30H16C15.4696 30 14.9609 30.2107 14.5858 30.5858C14.2107 30.9609 14 31.4696 14 32V36C14 36.5304 14.2107 37.0391 14.5858 37.4142C14.9609 37.7893 15.4696 38 16 38ZM16 32H22V36H16V32Z" fill="url(#paint1_linear_84_357)"/>
<path d="M15 44C15.2652 44 15.5196 43.8946 15.7071 43.7071C15.8946 43.5196 16 43.2652 16 43V41C16 40.7348 15.8946 40.4804 15.7071 40.2929C15.5196 40.1054 15.2652 40 15 40C14.7348 40 14.4804 40.1054 14.2929 40.2929C14.1054 40.4804 14 40.7348 14 41V43C14 43.2652 14.1054 43.5196 14.2929 43.7071C14.4804 43.8946 14.7348 44 15 44Z" fill="url(#paint2_linear_84_357)"/>
<path d="M19 40C18.7348 40 18.4804 40.1054 18.2929 40.2929C18.1054 40.4804 18 40.7348 18 41V43C18 43.2652 18.1054 43.5196 18.2929 43.7071C18.4804 43.8946 18.7348 44 19 44C19.2652 44 19.5196 43.8946 19.7071 43.7071C19.8946 43.5196 20 43.2652 20 43V41C20 40.7348 19.8946 40.4804 19.7071 40.2929C19.5196 40.1054 19.2652 40 19 40Z" fill="url(#paint3_linear_84_357)"/>
<path d="M22 41V43C22 43.2652 22.1054 43.5196 22.2929 43.7071C22.4804 43.8946 22.7348 44 23 44C23.2652 44 23.5196 43.8946 23.7071 43.7071C23.8946 43.5196 24 43.2652 24 43V41C24 40.7348 23.8946 40.4804 23.7071 40.2929C23.5196 40.1054 23.2652 40 23 40C22.7348 40 22.4804 40.1054 22.2929 40.2929C22.1054 40.4804 22 40.7348 22 41Z" fill="url(#paint4_linear_84_357)"/>
<path d="M27 40C26.7348 40 26.4804 40.1054 26.2929 40.2929C26.1054 40.4804 26 40.7348 26 41V43C26 43.2652 26.1054 43.5196 26.2929 43.7071C26.4804 43.8946 26.7348 44 27 44C27.2652 44 27.5196 43.8946 27.7071 43.7071C27.8946 43.5196 28 43.2652 28 43V41C28 40.7348 27.8946 40.4804 27.7071 40.2929C27.5196 40.1054 27.2652 40 27 40Z" fill="url(#paint5_linear_84_357)"/>
<path d="M31 44C31.2652 44 31.5196 43.8946 31.7071 43.7071C31.8946 43.5196 32 43.2652 32 43V41C32 40.7348 31.8946 40.4804 31.7071 40.2929C31.5196 40.1054 31.2652 40 31 40C30.7348 40 30.4804 40.1054 30.2929 40.2929C30.1054 40.4804 30 40.7348 30 41V43C30 43.2652 30.1054 43.5196 30.2929 43.7071C30.4804 43.8946 30.7348 44 31 44Z" fill="url(#paint6_linear_84_357)"/>
<path d="M39 40C38.7348 40 38.4804 40.1054 38.2929 40.2929C38.1054 40.4804 38 40.7348 38 41V43C38 43.2652 38.1054 43.5196 38.2929 43.7071C38.4804 43.8946 38.7348 44 39 44C39.2652 44 39.5196 43.8946 39.7071 43.7071C39.8946 43.5196 40 43.2652 40 43V41C40 40.7348 39.8946 40.4804 39.7071 40.2929C39.5196 40.1054 39.2652 40 39 40Z" fill="url(#paint7_linear_84_357)"/>
<path d="M43 40C42.7348 40 42.4804 40.1054 42.2929 40.2929C42.1054 40.4804 42 40.7348 42 41V43C42 43.2652 42.1054 43.5196 42.2929 43.7071C42.4804 43.8946 42.7348 44 43 44C43.2652 44 43.5196 43.8946 43.7071 43.7071C43.8946 43.5196 44 43.2652 44 43V41C44 40.7348 43.8946 40.4804 43.7071 40.2929C43.5196 40.1054 43.2652 40 43 40Z" fill="url(#paint8_linear_84_357)"/>
<path d="M47 40C46.7348 40 46.4804 40.1054 46.2929 40.2929C46.1054 40.4804 46 40.7348 46 41V43C46 43.2652 46.1054 43.5196 46.2929 43.7071C46.4804 43.8946 46.7348 44 47 44C47.2652 44 47.5196 43.8946 47.7071 43.7071C47.8946 43.5196 48 43.2652 48 43V41C48 40.7348 47.8946 40.4804 47.7071 40.2929C47.5196 40.1054 47.2652 40 47 40Z" fill="url(#paint9_linear_84_357)"/>
<path d="M51 40C50.7348 40 50.4804 40.1054 50.2929 40.2929C50.1054 40.4804 50 40.7348 50 41V43C50 43.2652 50.1054 43.5196 50.2929 43.7071C50.4804 43.8946 50.7348 44 51 44C51.2652 44 51.5196 43.8946 51.7071 43.7071C51.8946 43.5196 52 43.2652 52 43V41C52 40.7348 51.8946 40.4804 51.7071 40.2929C51.5196 40.1054 51.2652 40 51 40Z" fill="url(#paint10_linear_84_357)"/>
<path d="M19 46H15C14.7348 46 14.4804 46.1054 14.2929 46.2929C14.1054 46.4804 14 46.7348 14 47C14 47.2652 14.1054 47.5196 14.2929 47.7071C14.4804 47.8946 14.7348 48 15 48H19C19.2652 48 19.5196 47.8946 19.7071 47.7071C19.8946 47.5196 20 47.2652 20 47C20 46.7348 19.8946 46.4804 19.7071 46.2929C19.5196 46.1054 19.2652 46 19 46Z" fill="url(#paint11_linear_84_357)"/>
<path d="M27 46H23C22.7348 46 22.4804 46.1054 22.2929 46.2929C22.1054 46.4804 22 46.7348 22 47C22 47.2652 22.1054 47.5196 22.2929 47.7071C22.4804 47.8946 22.7348 48 23 48H27C27.2652 48 27.5196 47.8946 27.7071 47.7071C27.8946 47.5196 28 47.2652 28 47C28 46.7348 27.8946 46.4804 27.7071 46.2929C27.5196 46.1054 27.2652 46 27 46Z" fill="url(#paint12_linear_84_357)"/>
<path d="M19 50H15C14.7348 50 14.4804 50.1054 14.2929 50.2929C14.1054 50.4804 14 50.7348 14 51C14 51.2652 14.1054 51.5196 14.2929 51.7071C14.4804 51.8946 14.7348 52 15 52H19C19.2652 52 19.5196 51.8946 19.7071 51.7071C19.8946 51.5196 20 51.2652 20 51C20 50.7348 19.8946 50.4804 19.7071 50.2929C19.5196 50.1054 19.2652 50 19 50Z" fill="url(#paint13_linear_84_357)"/>
<path d="M27 50H23C22.7348 50 22.4804 50.1054 22.2929 50.2929C22.1054 50.4804 22 50.7348 22 51C22 51.2652 22.1054 51.5196 22.2929 51.7071C22.4804 51.8946 22.7348 52 23 52H27C27.2652 52 27.5196 51.8946 27.7071 51.7071C27.8946 51.5196 28 51.2652 28 51C28 50.7348 27.8946 50.4804 27.7071 50.2929C27.5196 50.1054 27.2652 50 27 50Z" fill="url(#paint14_linear_84_357)"/>
<path d="M35 46H31C30.7348 46 30.4804 46.1054 30.2929 46.2929C30.1054 46.4804 30 46.7348 30 47C30 47.2652 30.1054 47.5196 30.2929 47.7071C30.4804 47.8946 30.7348 48 31 48H35C35.2652 48 35.5196 47.8946 35.7071 47.7071C35.8946 47.5196 36 47.2652 36 47C36 46.7348 35.8946 46.4804 35.7071 46.2929C35.5196 46.1054 35.2652 46 35 46Z" fill="url(#paint15_linear_84_357)"/>
</g>
<defs>
<linearGradient id="paint0_linear_84_357" x1="30.0028" y1="0.0020752" x2="30.0028" y2="60" gradientUnits="userSpaceOnUse">
<stop stop-color="#F9579F"/>
<stop offset="1" stop-color="#FF585F"/>
</linearGradient>
<linearGradient id="paint1_linear_84_357" x1="19" y1="30" x2="19" y2="38" gradientUnits="userSpaceOnUse">
<stop stop-color="#F9579F"/>
<stop offset="1" stop-color="#FF585F"/>
</linearGradient>
<linearGradient id="paint2_linear_84_357" x1="15" y1="40" x2="15" y2="44" gradientUnits="userSpaceOnUse">
<stop stop-color="#F9579F"/>
<stop offset="1" stop-color="#FF585F"/>
</linearGradient>
<linearGradient id="paint3_linear_84_357" x1="19" y1="40" x2="19" y2="44" gradientUnits="userSpaceOnUse">
<stop stop-color="#F9579F"/>
<stop offset="1" stop-color="#FF585F"/>
</linearGradient>
<linearGradient id="paint4_linear_84_357" x1="23" y1="40" x2="23" y2="44" gradientUnits="userSpaceOnUse">
<stop stop-color="#F9579F"/>
<stop offset="1" stop-color="#FF585F"/>
</linearGradient>
<linearGradient id="paint5_linear_84_357" x1="27" y1="40" x2="27" y2="44" gradientUnits="userSpaceOnUse">
<stop stop-color="#F9579F"/>
<stop offset="1" stop-color="#FF585F"/>
</linearGradient>
<linearGradient id="paint6_linear_84_357" x1="31" y1="40" x2="31" y2="44" gradientUnits="userSpaceOnUse">
<stop stop-color="#F9579F"/>
<stop offset="1" stop-color="#FF585F"/>
</linearGradient>
<linearGradient id="paint7_linear_84_357" x1="39" y1="40" x2="39" y2="44" gradientUnits="userSpaceOnUse">
<stop stop-color="#F9579F"/>
<stop offset="1" stop-color="#FF585F"/>
</linearGradient>
<linearGradient id="paint8_linear_84_357" x1="43" y1="40" x2="43" y2="44" gradientUnits="userSpaceOnUse">
<stop stop-color="#F9579F"/>
<stop offset="1" stop-color="#FF585F"/>
</linearGradient>
<linearGradient id="paint9_linear_84_357" x1="47" y1="40" x2="47" y2="44" gradientUnits="userSpaceOnUse">
<stop stop-color="#F9579F"/>
<stop offset="1" stop-color="#FF585F"/>
</linearGradient>
<linearGradient id="paint10_linear_84_357" x1="51" y1="40" x2="51" y2="44" gradientUnits="userSpaceOnUse">
<stop stop-color="#F9579F"/>
<stop offset="1" stop-color="#FF585F"/>
</linearGradient>
<linearGradient id="paint11_linear_84_357" x1="17" y1="46" x2="17" y2="48" gradientUnits="userSpaceOnUse">
<stop stop-color="#F9579F"/>
<stop offset="1" stop-color="#FF585F"/>
</linearGradient>
<linearGradient id="paint12_linear_84_357" x1="25" y1="46" x2="25" y2="48" gradientUnits="userSpaceOnUse">
<stop stop-color="#F9579F"/>
<stop offset="1" stop-color="#FF585F"/>
</linearGradient>
<linearGradient id="paint13_linear_84_357" x1="17" y1="50" x2="17" y2="52" gradientUnits="userSpaceOnUse">
<stop stop-color="#F9579F"/>
<stop offset="1" stop-color="#FF585F"/>
</linearGradient>
<linearGradient id="paint14_linear_84_357" x1="25" y1="50" x2="25" y2="52" gradientUnits="userSpaceOnUse">
<stop stop-color="#F9579F"/>
<stop offset="1" stop-color="#FF585F"/>
</linearGradient>
<linearGradient id="paint15_linear_84_357" x1="33" y1="46" x2="33" y2="48" gradientUnits="userSpaceOnUse">
<stop stop-color="#F9579F"/>
<stop offset="1" stop-color="#FF585F"/>
</linearGradient>
<clipPath id="clip0_84_357">
<rect width="60" height="60" fill="white"/>
</clipPath>
</defs>
</svg>
