<svg width="80" height="80" viewBox="0 0 80 80" fill="none" xmlns="http://www.w3.org/2000/svg">
<g clip-path="url(#clip0_131_309)">
<path d="M79.9249 68.2434C79.9101 68.0493 79.8601 67.8595 79.7774 67.6833L73.7753 56.882V8.38787C73.7746 7.02921 73.2355 5.7262 72.2759 4.7643C71.3164 3.80241 70.0147 3.26007 68.656 3.2561H49.2669C48.9557 3.27026 48.662 3.40384 48.4468 3.62905C48.2316 3.85426 48.1115 4.15377 48.1115 4.46527C48.1115 4.77677 48.2316 5.07628 48.4468 5.30149C48.662 5.5267 48.9557 5.66028 49.2669 5.67443H68.6435C69.3623 5.67576 70.0512 5.96222 70.559 6.47095C71.0668 6.97967 71.352 7.66909 71.352 8.38787V55.9842H65.7751C65.454 55.9842 65.1462 56.1118 64.9192 56.3388C64.6922 56.5657 64.5646 56.8736 64.5646 57.1946C64.5646 57.5157 64.6922 57.8235 64.9192 58.0505C65.1462 58.2775 65.454 58.4051 65.7751 58.4051H71.8496L76.6513 67.063H3.32858L8.12773 58.4051H42.7947C43.1157 58.4051 43.4235 58.2775 43.6505 58.0505C43.8775 57.8235 44.0051 57.5157 44.0051 57.1946C44.0051 56.8736 43.8775 56.5657 43.6505 56.3388C43.4235 56.1118 43.1157 55.9842 42.7947 55.9842H8.62541V46.3284C8.62541 46.0074 8.49788 45.6995 8.27088 45.4725C8.04389 45.2455 7.73601 45.118 7.41499 45.118C7.09397 45.118 6.78609 45.2455 6.5591 45.4725C6.3321 45.6995 6.20457 46.0074 6.20457 46.3284V56.882L0.215015 67.6833C0.130849 67.859 0.0807801 68.0491 0.0674639 68.2434C-0.182622 72.0348 0.0124451 76.5613 4.90413 76.7464H75.0882C79.9249 76.5838 80.2025 72.0297 79.9249 68.2434ZM77.5091 71.9047C77.5078 72.5461 77.2522 73.1608 76.7984 73.6141C76.3446 74.0675 75.7297 74.3224 75.0882 74.323H4.90413C2.26822 74.323 2.38576 71.372 2.48329 69.4839H77.5091V71.9047ZM29.9152 50.6749C34.0834 50.6732 38.1768 49.5679 41.7793 47.4713L51.1725 56.862C51.7871 57.421 52.5169 57.8384 53.3104 58.0845C54.1039 58.3306 54.9418 58.3996 55.7648 58.2866C56.5879 58.1735 57.3761 57.8812 58.0739 57.4302C58.7716 56.9793 59.3619 56.3806 59.803 55.6766C60.7848 54.6865 61.3357 53.3485 61.3357 51.9541C61.3357 50.5597 60.7848 49.2217 59.803 48.2316L50.4148 38.8458C51.165 37.1277 54.7763 31.2732 52.2154 30.2079C52.0595 30.1762 51.8989 30.1755 51.7428 30.2061C51.5867 30.2366 51.4382 30.2976 51.3058 30.3857C51.1733 30.4737 51.0596 30.5871 50.971 30.7192C50.8825 30.8514 50.821 30.9997 50.7899 31.1557C49.7517 36.3358 46.8245 40.9448 42.5774 44.087C38.3302 47.2291 33.0665 48.6799 27.8092 48.1573C22.552 47.6347 17.6769 45.1761 14.1315 41.2593C10.586 37.3425 8.62351 32.2474 8.62541 26.9643C8.45785 6.22962 36.1349 -2.21578 47.5663 15.0627C47.7542 15.3075 48.0285 15.4714 48.3332 15.5207C48.6379 15.57 48.95 15.501 49.2055 15.3279C49.461 15.1548 49.6408 14.8906 49.708 14.5893C49.7752 14.2881 49.7247 13.9725 49.567 13.7072C47.3975 10.4892 44.471 7.85323 41.0444 6.03094C37.6179 4.20865 33.7962 3.2558 29.9152 3.2561C-1.41554 4.25645 -1.41305 49.6821 29.9152 50.6749ZM49.0743 40.9216L58.0924 49.9397C58.6227 50.4745 58.9202 51.1972 58.9202 51.9503C58.9202 52.7035 58.6227 53.4262 58.0924 53.961C56.8795 55.5566 54.5912 56.862 52.8831 55.1464L43.845 46.1083C45.8456 44.6619 47.6097 42.9139 49.0743 40.9266V40.9216ZM18.7914 15.8429C17.2447 17.3953 16.0388 19.2532 15.2509 21.2979C14.4629 23.3427 14.1101 25.5293 14.2151 27.7181C14.32 29.907 14.8804 32.0498 15.8605 34.0098C16.8405 35.9698 18.2186 37.7037 19.9068 39.1009C22.7239 41.4217 26.2603 42.6907 29.9102 42.6907C33.5602 42.6907 37.0965 41.4217 39.9137 39.1009C56.2318 24.7435 34.6393 0.990324 18.7914 15.8429ZM37.9705 37.5579C35.6544 39.3202 32.8243 40.2745 29.914 40.2745C27.0036 40.2745 24.1735 39.3202 21.8575 37.5579C21.8886 35.9594 22.3128 34.3932 23.0927 32.9975C23.8725 31.6018 24.984 30.4195 26.329 29.5551C27.3636 30.3288 28.6208 30.7468 29.9127 30.7468C31.2046 30.7468 32.4618 30.3288 33.4965 29.5551C34.6939 30.3295 35.7093 31.3543 36.4726 32.5588C37.2359 33.7634 37.729 35.1191 37.918 36.5325H37.903C37.9568 36.8715 37.9794 37.2148 37.9705 37.5579ZM26.0089 23.9432C25.7788 18.909 34.0566 18.9115 33.8266 23.9432C33.8819 24.4898 33.8221 25.0418 33.6508 25.5638C33.4796 26.0858 33.2008 26.5661 32.8325 26.9736C32.4641 27.3812 32.0144 27.7069 31.5124 27.9299C31.0103 28.1529 30.4671 28.2681 29.9177 28.2681C29.3684 28.2681 28.8251 28.1529 28.3231 27.9299C27.821 27.7069 27.3713 27.3812 27.003 26.9736C26.6346 26.5661 26.3558 26.0858 26.1846 25.5638C26.0134 25.0418 25.9535 24.4898 26.0089 23.9432ZM40.1963 35.4247C39.5564 32.3235 37.7497 29.5866 35.1495 27.7795C41.4017 14.47 18.4438 14.4525 24.6784 27.7645C22.0773 29.576 20.2729 32.3189 19.6392 35.4247C17.5416 32.8687 16.4688 29.6244 16.6291 26.3219C16.7895 23.0193 18.1716 19.8942 20.507 17.5535C32.4836 5.8745 50.6298 22.4777 40.1938 35.4247H40.1963ZM55.9092 16.4356V19.8868C56.977 20.1069 60.6408 19.1366 60.5708 21.0972C60.6333 23.0279 56.9795 22.0976 55.9092 22.3052C55.6891 23.373 56.6594 27.0393 54.6987 26.9693C52.7656 27.0318 53.6984 23.3755 53.4883 22.3052C52.423 22.0851 48.7567 23.0554 48.8242 21.0972C48.7642 19.1641 52.418 20.0969 53.4883 19.8868V16.4356C53.4883 16.1146 53.6159 15.8067 53.8428 15.5797C54.0698 15.3527 54.3777 15.2252 54.6987 15.2252C55.0198 15.2252 55.3276 15.3527 55.5546 15.5797C55.7816 15.8067 55.9092 16.1146 55.9092 16.4356Z" fill="white"/>
</g>
<defs>
<clipPath id="clip0_131_309">
<rect width="80" height="80" fill="white"/>
</clipPath>
</defs>
</svg>
