<svg width="60" height="60" viewBox="0 0 60 60" fill="none" xmlns="http://www.w3.org/2000/svg">
<g clip-path="url(#clip0_83_109)">
<path d="M17.2622 25.0315C16.6905 24.5419 15.83 24.6084 15.3405 25.1801C14.9034 25.6903 14.9034 26.4429 15.3405 26.9532L28.9699 40.5828C29.4962 41.121 30.359 41.1307 30.8973 40.6044C30.9045 40.5973 30.9118 40.5901 30.9189 40.5828L53.653 16.731L55.602 14.6865L59.5137 10.5977C60.0899 10.1135 60.1646 9.25377 59.6803 8.67738C59.1961 8.1011 58.3364 8.02649 57.76 8.5107C57.6824 8.57594 57.6123 8.64962 57.5509 8.73044L54.0482 12.3695L52.1537 14.3594L29.9103 37.6796L17.2622 25.0315Z" fill="url(#paint0_linear_83_109)"/>
<path d="M57.483 18.5983H57.5103C56.9548 18.0902 56.0928 18.1286 55.5847 18.684C55.2695 19.0286 55.1526 19.5106 55.275 19.9613C60.8442 33.9481 54.0204 49.8014 40.0337 55.3705C26.047 60.9396 10.1936 54.1159 4.62441 40.1291C-0.944822 26.1424 5.87898 10.2892 19.8658 4.71996C30.1458 0.626664 41.8804 3.15372 49.5642 11.1157C50.1471 11.592 51.0057 11.5057 51.4821 10.9229C51.9108 10.3984 51.8892 9.63866 51.4315 9.13934C51.3753 9.09858 51.316 9.06204 51.2543 9.0303C39.6731 -2.75402 20.7315 -2.9187 8.94716 8.66251C-2.83715 20.2437 -3.00195 39.1853 8.57926 50.9696C20.1605 62.7541 39.1021 62.9187 50.8864 51.3375C59.4071 42.9636 62.1291 30.3231 57.8101 19.1844C57.7515 18.9648 57.6391 18.7633 57.483 18.5983Z" fill="url(#paint1_linear_83_109)"/>
</g>
<defs>
<linearGradient id="paint0_linear_83_109" x1="37.5063" y1="8.19122" x2="37.5063" y2="40.9929" gradientUnits="userSpaceOnUse">
<stop stop-color="#F957A0"/>
<stop offset="1" stop-color="#FF585F"/>
</linearGradient>
<linearGradient id="paint1_linear_83_109" x1="29.9172" y1="0.0831909" x2="29.9172" y2="59.9168" gradientUnits="userSpaceOnUse">
<stop stop-color="#F957A0"/>
<stop offset="1" stop-color="#FF585F"/>
</linearGradient>
<clipPath id="clip0_83_109">
<rect width="60" height="60" fill="white"/>
</clipPath>
</defs>
</svg>
