<svg width="64" height="64" viewBox="0 0 64 64" fill="none" xmlns="http://www.w3.org/2000/svg">
<path d="M64 36.4866L63.8692 36.1513L63.8263 35.2991H63.3579L52.378 18.8063H39.695V21.0053H51.2015L60.7443 35.2991H42.9936V42.9958H21.0031V35.2991H3.25239L12.7952 21.0053H24.3017V18.8063H11.6176L0.586046 35.3332L0.112151 35.3574V36.2458L0 36.5218L0.112151 36.6801V57.9658C0.112151 60.0175 1.78233 61.6866 3.83404 61.6866H60.1627C62.2144 61.6866 63.8846 60.0175 63.8846 57.9658V36.6614L64 36.4866ZM61.6855 57.9658C61.6855 58.8047 61.0027 59.4876 60.1627 59.4876H3.83294C2.9929 59.4876 2.3101 58.8047 2.3101 57.9658V37.4982H18.803V45.1948H45.1915V37.4982H61.6844V57.9658H61.6855Z" fill="white"/>
<path d="M23.9797 26.824C23.5498 26.3941 22.8549 26.3941 22.425 26.824C21.9951 27.2539 21.9951 27.9488 22.425 28.3787L31.2201 37.1738C31.2212 37.1749 31.2212 37.1749 31.2223 37.176L31.9985 37.9523L32.7748 37.176C32.7759 37.1749 32.7759 37.1749 32.777 37.1738L41.5721 28.3787C42.002 27.9488 42.002 27.2539 41.5721 26.824C41.1422 26.3941 40.4473 26.3941 40.0174 26.824L33.0981 33.7433V3.41292C33.0981 2.80599 32.6066 2.3134 31.9985 2.3134C31.3905 2.3134 30.899 2.80599 30.899 3.41292V33.7444L23.9797 26.824Z" fill="white"/>
</svg>
