<svg width="110" height="109" viewBox="0 0 110 109" fill="none" xmlns="http://www.w3.org/2000/svg">
<path d="M46.023 92.4481C45.5455 90.057 44.5608 87.796 43.1353 85.8178C41.7097 83.8396 39.8765 82.1901 37.7592 80.9806C35.7238 79.8244 33.5461 78.9392 31.2812 78.3475C33.3001 76.8317 34.791 74.7192 35.5428 72.3091C36.2945 69.899 36.2691 67.3135 35.4702 64.9187C34.6712 62.5239 33.1391 60.4411 31.0908 58.9652C29.0426 57.4893 26.5819 56.6951 24.0573 56.6951C21.5327 56.6951 19.0721 57.4893 17.0238 58.9652C14.9756 60.4411 13.4435 62.5239 12.6445 64.9187C11.8455 67.3135 11.8201 69.899 12.5719 72.3091C13.3237 74.7192 14.8146 76.8317 16.8334 78.3475C14.5704 78.9396 12.3944 79.8248 10.3606 80.9806C8.24361 82.19 6.41055 83.8392 4.98501 85.8171C3.55948 87.795 2.57462 90.0556 2.09686 92.4464L0.0343586 102.781C-0.0454676 103.179 0.0178831 103.592 0.213208 103.947C0.408533 104.303 0.723249 104.578 1.1017 104.723C15.8796 110.416 32.2453 110.416 47.0233 104.723C47.4017 104.578 47.7164 104.303 47.9118 103.947C48.1071 103.592 48.1704 103.179 48.0906 102.781L46.023 92.4481ZM15.4687 68.75C15.4687 67.0503 15.9727 65.3888 16.917 63.9756C17.8613 62.5623 19.2035 61.4609 20.7738 60.8104C22.3441 60.16 24.072 59.9898 25.739 60.3214C27.4061 60.653 28.9373 61.4715 30.1392 62.6733C31.341 63.8752 32.1595 65.4064 32.4911 67.0735C32.8227 68.7405 32.6525 70.4684 32.0021 72.0387C31.3516 73.609 30.2502 74.9512 28.8369 75.8955C27.4237 76.8397 25.7622 77.3438 24.0625 77.3438C21.7841 77.341 19.5998 76.4347 17.9888 74.8237C16.3777 73.2126 15.4715 71.0284 15.4687 68.75ZM3.69014 102.023L5.47248 93.1202C5.85373 91.2112 6.64001 89.4063 7.77827 87.8271C8.91654 86.248 10.3803 84.9313 12.0708 83.9661C15.7356 81.9177 19.864 80.8422 24.0625 80.8422C28.2609 80.8422 32.3894 81.9177 36.0542 83.9661C37.7449 84.9314 39.2089 86.2483 40.3472 87.8278C41.4854 89.4073 42.2716 91.2126 42.6525 93.1219L44.4348 102.023C31.263 106.741 16.862 106.741 3.69014 102.023Z" fill="white"/>
<path d="M65.2608 44.6411C65.2058 44.4221 65.1082 44.2161 64.9735 44.0349C64.8389 43.8537 64.6698 43.7008 64.476 43.5849C64.2823 43.469 64.0676 43.3925 63.8442 43.3596C63.6208 43.3267 63.3932 43.3381 63.1743 43.3933C57.6024 44.7685 51.8182 45.0602 46.1363 44.2526C45.7317 44.1937 45.3195 44.2835 44.9761 44.5053L36.953 49.6031L38.218 43.9072C38.307 43.5071 38.25 43.0884 38.0575 42.7266C37.8649 42.3648 37.5494 42.0837 37.1678 41.9341C28.9625 38.7166 24.0624 33.3197 24.0624 27.5C24.0624 21.7851 28.8027 16.4433 36.7416 13.212C36.9507 13.1269 37.141 13.0015 37.3017 12.8428C37.4623 12.6842 37.5901 12.4955 37.6778 12.2874C37.7655 12.0794 37.8114 11.8561 37.8128 11.6303C37.8142 11.4046 37.7711 11.1807 37.6861 10.9716C37.601 10.7625 37.4755 10.5722 37.3169 10.4116C37.1582 10.2509 36.9695 10.1231 36.7615 10.0354C36.5534 9.9477 36.3301 9.90184 36.1044 9.90042C35.8786 9.89901 35.6548 9.94208 35.4457 10.0272C26.1661 13.805 20.6249 20.338 20.6249 27.5C20.6249 34.4351 25.8 40.7344 34.5468 44.5689L32.6922 52.9083C32.618 53.2404 32.644 53.5871 32.7671 53.9044C32.8901 54.2217 33.1045 54.4954 33.3832 54.6907C33.6619 54.886 33.9923 54.9941 34.3326 55.0015C34.6728 55.0088 35.0076 54.915 35.2944 54.7319L46.2944 47.7331C52.212 48.4994 58.2204 48.1578 64.013 46.7259C64.4548 46.6148 64.8345 46.3327 65.0685 45.9418C65.3024 45.5509 65.3716 45.083 65.2608 44.6411Z" fill="white"/>
<path d="M109.965 102.781L107.903 92.4412C107.426 90.0501 106.441 87.7891 105.015 85.8109C103.59 83.8327 101.756 82.1832 99.6392 80.9737C97.6019 79.8195 95.4224 78.9366 93.1561 78.3475C95.175 76.8316 96.6658 74.7191 97.4176 72.3091C98.1694 69.899 98.144 67.3135 97.345 64.9187C96.546 62.5238 95.014 60.441 92.9657 58.9651C90.9174 57.4893 88.4568 56.6951 85.9322 56.6951C83.4076 56.6951 80.947 57.4893 78.8987 58.9651C76.8505 60.441 75.3184 62.5238 74.5194 64.9187C73.7204 67.3135 73.695 69.899 74.4468 72.3091C75.1986 74.7191 76.6894 76.8316 78.7083 78.3475C76.4452 78.9396 74.2692 79.8248 72.2355 80.9806C70.1185 82.19 68.2854 83.8392 66.8599 85.8171C65.4344 87.795 64.4495 90.0556 63.9717 92.4464L61.9092 102.781C61.8294 103.179 61.8928 103.592 62.0881 103.947C62.2834 104.303 62.5981 104.578 62.9766 104.723C77.7545 110.416 94.1202 110.416 108.898 104.723C109.277 104.578 109.591 104.303 109.787 103.947C109.982 103.592 110.045 103.179 109.965 102.781ZM77.3436 68.75C77.3436 67.0503 77.8476 65.3888 78.7919 63.9755C79.7362 62.5623 81.0784 61.4608 82.6487 60.8104C84.219 60.16 85.9469 59.9898 87.6139 60.3214C89.2809 60.6529 90.8122 61.4714 92.0141 62.6733C93.2159 63.8751 94.0344 65.4064 94.366 67.0734C94.6976 68.7404 94.5274 70.4684 93.8769 72.0387C93.2265 73.609 92.125 74.9511 90.7118 75.8954C89.2986 76.8397 87.637 77.3437 85.9374 77.3437C83.659 77.341 81.4747 76.4347 79.8637 74.8237C78.2526 73.2126 77.3463 71.0283 77.3436 68.75ZM65.565 102.023L67.3474 93.1201C67.7286 91.2112 68.5149 89.4062 69.6532 87.8271C70.7914 86.2479 72.2552 84.9313 73.9456 83.9661C77.6105 81.9176 81.7389 80.8422 85.9374 80.8422C90.1358 80.8422 94.2643 81.9176 97.9291 83.9661C99.6198 84.9314 101.084 86.2483 102.222 87.8278C103.36 89.4072 104.146 91.2126 104.527 93.1219L106.31 102.023C93.1379 106.741 78.7368 106.741 65.565 102.023Z" fill="#00D1B3"/>
<path d="M66.9246 41.1538L74.176 52.4975C74.3597 52.7856 74.625 53.0123 74.9382 53.1489C75.2513 53.2854 75.5981 53.3256 75.9342 53.2642C76.2702 53.2027 76.5804 53.0425 76.825 52.804C77.0696 52.5656 77.2376 52.2596 77.3075 51.9252L79.7808 40.1844C92.766 37.3725 101.406 29.6089 101.406 20.625C101.406 9.25203 87.1405 0 69.6093 0C52.078 0 37.8124 9.25203 37.8124 20.625C37.8124 31.3638 50.5311 40.2703 66.9246 41.1538ZM69.6093 3.4375C85.2499 3.4375 97.9686 11.1478 97.9686 20.625C97.9686 28.0466 89.7616 34.7927 78.0122 37.0288C77.6791 37.092 77.372 37.2524 77.1298 37.4897C76.8876 37.727 76.721 38.0307 76.651 38.3625L74.8085 47.0938L69.3411 38.5447C69.191 38.3103 68.9861 38.1159 68.7442 37.9782C68.5023 37.8404 68.2306 37.7635 67.9524 37.7541C52.9786 37.2264 41.2499 29.7 41.2499 20.625C41.2499 11.1478 53.9686 3.4375 69.6093 3.4375Z" fill="#00D1B3"/>
<path d="M58.4374 12.0312H67.0311V15.4688H58.4374V12.0312Z" fill="#00D1B3"/>
<path d="M70.4686 12.0312H73.9061V15.4688H70.4686V12.0312Z" fill="#00D1B3"/>
<path d="M77.3436 12.0312H85.9374V15.4688H77.3436V12.0312Z" fill="#00D1B3"/>
<path d="M53.2811 18.9062H73.9061V22.3438H53.2811V18.9062Z" fill="#00D1B3"/>
<path d="M77.3436 18.9062H85.9374V22.3438H77.3436V18.9062Z" fill="#00D1B3"/>
<path d="M53.2811 25.7812H60.1561V29.2188H53.2811V25.7812Z" fill="#00D1B3"/>
<path d="M63.5936 25.7812H82.4999V29.2188H63.5936V25.7812Z" fill="#00D1B3"/>
</svg>
