<svg width="80" height="81" viewBox="0 0 80 81" fill="none" xmlns="http://www.w3.org/2000/svg">
<g clip-path="url(#clip0_131_255)">
<path d="M79.4797 66.5479L71.4582 61.1637L72.7051 58.7751C72.9269 58.3501 72.869 57.8325 72.5584 57.4675C72.4627 57.3549 70.2918 54.8438 65.3447 52.3027C67.1142 48.4394 68.5384 44.2145 69.6021 39.6627C72.8034 25.9649 71.649 14.2035 71.5982 13.7096C71.5413 13.156 71.1051 12.7183 70.5531 12.6613C61.2288 11.6966 53.629 8.57788 48.8957 6.13173C43.7505 3.47247 40.78 1.00847 40.7513 0.98449C40.3163 0.619997 39.6833 0.619997 39.2486 0.98449C39.1316 1.08259 27.3476 10.8093 9.44667 12.6614C8.89464 12.7186 8.45839 13.1561 8.40152 13.7098C8.37871 13.9315 7.85105 19.2262 8.44542 26.8572C8.49589 27.5041 9.05807 27.9883 9.70448 27.937C10.3496 27.8866 10.8317 27.321 10.7813 26.6743C10.3467 21.0924 10.5365 16.7241 10.6584 14.8902C19.9347 13.7757 27.4846 10.6531 32.2452 8.18549C36.1252 6.17436 38.7827 4.29846 39.9999 3.37798C41.2167 4.29846 43.8745 6.17436 47.7543 8.18549C52.5151 10.6531 60.0647 13.7756 69.3409 14.8902C69.5423 17.9364 69.926 27.9801 67.3209 39.1268C66.1923 43.9556 64.6469 48.3952 62.7055 52.4024C62.6511 52.5146 62.5955 52.6252 62.5405 52.7365C62.4206 52.9794 62.2995 53.2209 62.1767 53.4606C62.1075 53.5957 62.0383 53.7306 61.9681 53.8648C61.8378 54.1138 61.7055 54.3606 61.572 54.606C61.4606 54.8106 61.3478 55.0136 61.2344 55.2157C61.1325 55.3972 61.0302 55.5782 60.9267 55.7574C60.8225 55.9376 60.7172 56.1167 60.6113 56.2949C60.5349 56.4236 60.4574 56.5508 60.38 56.6782C60.13 57.0899 59.8758 57.4967 59.616 57.8972C59.5969 57.9265 59.5785 57.9563 59.5594 57.9856C59.4241 58.1931 59.2871 58.3979 59.1492 58.6022C59.0902 58.6898 59.0308 58.7773 58.9711 58.8642C58.1568 60.0549 57.2986 61.1933 56.3977 62.2752C56.3925 62.2815 56.3874 62.2877 56.3822 62.294C56.2077 62.5034 56.0313 62.7101 55.8536 62.9153C55.7136 63.0766 55.5722 63.2358 55.4302 63.3947C55.4016 63.4267 55.3733 63.4593 55.3447 63.4911C55.1843 63.6694 55.0226 63.846 54.8594 64.0212C54.8512 64.0301 54.8429 64.0392 54.8344 64.0481C50.6992 68.4825 45.7304 71.9057 40 74.2608C34.3894 71.9531 28.1084 68.0043 22.7809 61.2557C22.7639 61.2341 22.7469 61.2123 22.7298 61.1907C22.6225 61.0542 22.5161 60.9156 22.4097 60.777C20.4664 58.2271 18.7417 55.402 17.2607 52.3338C17.2261 52.2621 17.185 52.1957 17.1388 52.1346C14.4554 46.5345 12.3718 39.7009 11.2712 31.358C11.1863 30.7148 10.5959 30.2621 9.95619 30.3475C9.31479 30.4325 8.86355 31.0232 8.94839 31.6663C9.95822 39.3206 11.8746 46.2386 14.6554 52.3027C9.70776 54.8442 7.53699 57.3552 7.44121 57.4677C7.13075 57.8327 7.07278 58.3502 7.29434 58.7752L8.5412 61.1639L0.51986 66.548C0.180019 66.7764 -0.016698 67.1658 0.00111438 67.5755C0.0189267 67.9853 0.248456 68.3561 0.607047 68.554L7.1609 72.1692V79.43C7.1609 79.8517 7.38637 80.2411 7.75152 80.4503C7.93168 80.5534 8.13199 80.605 8.33246 80.605C8.53839 80.605 8.74448 80.5505 8.92808 80.4417L21.9452 72.7345C21.9533 72.7297 21.9605 72.7242 21.9684 72.7192C21.9817 72.7109 21.9947 72.7023 22.0077 72.6935C22.0309 72.6777 22.0534 72.661 22.0753 72.6438C22.0859 72.6353 22.0967 72.627 22.107 72.6183C22.1345 72.5949 22.1606 72.5705 22.1856 72.5451C22.1897 72.541 22.1939 72.5374 22.1978 72.5332C22.2281 72.5014 22.2563 72.468 22.2825 72.4334C22.2833 72.4323 22.2844 72.4313 22.2853 72.4301C22.2873 72.4272 22.2889 72.4241 22.2909 72.4213C22.3178 72.3848 22.3422 72.347 22.3645 72.3078C22.3692 72.2995 22.3742 72.2914 22.3788 72.2831C22.4014 72.2411 22.4219 72.1982 22.4392 72.154C22.4422 72.1464 22.4445 72.1388 22.4473 72.1311C22.4614 72.0928 22.4734 72.054 22.4836 72.0146C22.4863 72.0042 22.4892 71.9938 22.4916 71.9833C22.502 71.9374 22.51 71.8912 22.515 71.8442C22.5156 71.8379 22.5158 71.8316 22.5163 71.8252C22.52 71.7829 22.5213 71.7404 22.5203 71.6978C22.5202 71.6881 22.52 71.6784 22.5197 71.6686C22.5175 71.6205 22.513 71.5723 22.5048 71.5243C22.5042 71.521 22.5033 71.5177 22.5027 71.5143C22.4948 71.4706 22.4839 71.4273 22.4709 71.3842C22.4675 71.3729 22.4641 71.3618 22.4605 71.3507C22.4452 71.3048 22.428 71.2592 22.4066 71.2145L20.8017 67.8559C21.765 67.3743 22.8892 66.8806 24.183 66.4155C28.5071 70.842 33.6499 74.2586 39.5674 76.6194C39.7066 76.6749 39.8533 76.7026 40.0003 76.7026C40.1474 76.7026 40.2942 76.6749 40.4333 76.6194C46.3403 74.2627 51.491 70.843 55.8182 66.4158C57.1118 66.8809 58.2358 67.3745 59.1989 67.856L57.5941 71.2147C57.5727 71.2593 57.5555 71.3051 57.5402 71.351C57.5364 71.3621 57.533 71.3733 57.5297 71.3845C57.5168 71.4276 57.5058 71.471 57.498 71.5148C57.4974 71.5181 57.4964 71.5213 57.496 71.5246C57.4879 71.5726 57.4833 71.6208 57.4811 71.669C57.4807 71.6788 57.4807 71.6885 57.4805 71.6983C57.4797 71.7409 57.4808 71.7834 57.4846 71.8257C57.4852 71.8319 57.4852 71.8384 57.4858 71.8446C57.4907 71.8915 57.4988 71.9379 57.5093 71.9836C57.5116 71.9943 57.5146 72.0046 57.5174 72.0151C57.5274 72.0545 57.5394 72.0932 57.5535 72.1312C57.5563 72.1389 57.5586 72.1467 57.5616 72.1544C57.5789 72.1986 57.5993 72.2414 57.6219 72.2832C57.6264 72.2917 57.6314 72.3 57.6363 72.3083C57.6586 72.3472 57.6828 72.3851 57.7096 72.4213C57.7118 72.4241 57.7132 72.4274 57.7154 72.4302C57.7163 72.4313 57.7172 72.4324 57.7182 72.4335C57.7444 72.4681 57.7725 72.5015 57.8028 72.5333C57.8068 72.5376 57.811 72.5412 57.815 72.5452C57.8399 72.5706 57.8661 72.5951 57.8936 72.6184C57.9039 72.6272 57.9147 72.6355 57.9254 72.644C57.9472 72.6612 57.9697 72.6778 57.993 72.6936C58.006 72.7024 58.0189 72.7112 58.0321 72.7193C58.04 72.7244 58.0472 72.7298 58.0553 72.7347L71.0723 80.4418C71.2559 80.5506 71.4616 80.6051 71.6679 80.6051C71.8682 80.6051 72.0687 80.5536 72.2488 80.4505C72.614 80.2413 72.8394 79.8519 72.8394 79.4302V72.1692L79.3933 68.554C79.7517 68.3562 79.9814 67.9855 79.9992 67.5755C80.0163 67.1656 79.8197 66.7762 79.4797 66.5479ZM9.50432 77.3716V71.474C9.50416 71.0457 9.27151 70.6513 8.89714 70.4446L3.42437 67.4259L9.63463 63.2577L13.7551 71.1514C13.7777 71.1948 13.803 71.2363 13.8305 71.2759C13.8413 71.2915 13.854 71.3054 13.8654 71.3203C13.8835 71.344 13.9013 71.3681 13.9212 71.39C13.9408 71.412 13.9624 71.4319 13.9835 71.4522C13.9968 71.4649 14.0093 71.4784 14.0232 71.4903C14.0491 71.513 14.0768 71.5337 14.1048 71.5541C14.1149 71.5615 14.1248 71.5693 14.1351 71.5763C14.1663 71.5977 14.199 71.6168 14.2323 71.6351C14.2401 71.6393 14.2477 71.6439 14.2557 71.648C14.2913 71.6665 14.3279 71.6827 14.3655 71.6975C14.3718 71.7 14.378 71.7025 14.3844 71.7048C14.4233 71.7194 14.463 71.7318 14.5037 71.7423C14.5093 71.7437 14.5151 71.7451 14.5208 71.7464C14.5463 71.7525 14.5712 71.7603 14.5972 71.7647L17.9969 72.3434L9.50432 77.3716ZM17.453 69.8673C17.4804 69.8473 17.5091 69.8268 17.5374 69.8064C17.598 69.7627 17.6585 69.7191 17.7222 69.6743C17.7613 69.6467 17.803 69.6185 17.8433 69.5906C17.9086 69.5455 17.9733 69.5005 18.0416 69.4543C18.0828 69.4265 18.1268 69.3979 18.1693 69.3696C18.241 69.3219 18.3119 69.2745 18.3869 69.2258C18.4138 69.2084 18.4428 69.1905 18.4702 69.173C18.5546 69.1188 18.6397 69.0645 18.728 69.0094C18.7347 69.0051 18.7421 69.0009 18.7488 68.9967L19.3163 70.1843L17.453 69.8673ZM18.6849 66.3139C18.6816 66.3158 18.678 66.3167 18.6747 66.3186C18.6647 66.3241 18.6552 66.3296 18.6452 66.3352C18.645 66.3352 18.645 66.3352 18.6449 66.3354C18.641 66.3376 18.6372 66.3398 18.6332 66.342C18.5835 66.3696 18.5349 66.397 18.4861 66.4246C18.3953 66.4756 18.3064 66.5266 18.2188 66.5773C18.1666 66.6076 18.1143 66.6377 18.0632 66.6678C18.0574 66.6712 18.0518 66.6745 18.046 66.6779C18.038 66.6826 18.0303 66.6873 18.0224 66.6919C17.8816 66.7749 17.7453 66.8571 17.6122 66.9389C17.5918 66.9514 17.5705 66.9642 17.5502 66.9768C17.4694 67.0268 17.3908 67.0761 17.3129 67.1255C17.2961 67.136 17.2799 67.1465 17.2633 67.157C17.2613 67.1582 17.2594 67.1595 17.2574 67.1608C16.3565 67.7351 15.6474 68.2672 15.1212 68.7027L11.2884 61.3604L9.76557 58.4422C10.6185 57.6351 12.5116 56.049 15.6776 54.4176C15.799 54.656 15.9218 54.8927 16.0461 55.1283C16.1093 55.2478 16.1738 55.366 16.2377 55.4849C16.3994 55.7858 16.563 56.0848 16.7296 56.3808C16.7666 56.4468 16.8018 56.5145 16.839 56.5801C18.0905 58.7857 19.4707 60.8429 20.9728 62.753C21.0075 62.7972 21.0422 62.8414 21.077 62.8854C21.1991 63.0394 21.3217 63.1927 21.4455 63.3447C21.5091 63.4229 21.5731 63.5005 21.637 63.5782C21.7459 63.7103 21.8545 63.8425 21.9644 63.9731C22.1283 64.168 22.2934 64.3611 22.46 64.5524C20.9984 65.1236 19.7471 65.7269 18.6849 66.3139ZM57.5405 64.5523C57.5425 64.5491 57.5452 64.546 57.5478 64.543C57.6489 64.4272 57.7483 64.3095 57.848 64.1926C57.9088 64.1213 57.97 64.051 58.0305 63.9794C58.1832 63.7984 58.3341 63.6156 58.4844 63.432C58.4896 63.4257 58.4947 63.4196 58.4997 63.4133C59.2333 62.5151 59.9392 61.5837 60.6152 60.6177C60.7049 60.4896 60.7911 60.3578 60.8795 60.2285C60.9872 60.0715 61.0947 59.9145 61.2006 59.7557C61.3195 59.5777 61.4374 59.3986 61.5542 59.2184C61.6486 59.0733 61.7417 58.9269 61.8347 58.7804C61.9897 58.5364 62.143 58.2912 62.2945 58.0434C62.3972 57.8756 62.4989 57.707 62.5998 57.5376C62.7183 57.3389 62.8358 57.1396 62.9519 56.9385C63.0825 56.7127 63.2116 56.4856 63.3394 56.257C63.4095 56.1312 63.4801 56.0058 63.5495 55.879C63.7169 55.5739 63.8812 55.2659 64.0436 54.9557C64.0987 54.8503 64.1534 54.7445 64.2081 54.6386C64.2461 54.5649 64.2848 54.4919 64.3225 54.4179C67.466 56.0403 69.3731 57.6354 70.2331 58.4451L64.8786 68.7027C64.3522 68.2672 63.6431 67.7349 62.7419 67.1606C62.74 67.1593 62.7383 67.1582 62.7364 67.157C62.72 67.1465 62.7036 67.136 62.687 67.1255C62.6092 67.0761 62.5306 67.0268 62.45 66.9769C62.4245 66.9613 62.3978 66.9451 62.372 66.9295C62.2439 66.8508 62.1128 66.7718 61.9775 66.6919C61.9695 66.6872 61.9619 66.6825 61.9539 66.6779C61.9481 66.6745 61.9425 66.6712 61.9367 66.6678C61.8856 66.6377 61.8331 66.6076 61.7811 66.5773C61.6933 66.5266 61.6044 66.4758 61.5138 66.4246C61.465 66.3971 61.4163 66.3696 61.3667 66.342C61.3628 66.3398 61.3591 66.3376 61.355 66.3354C61.3549 66.3354 61.3549 66.3352 61.3549 66.3352C61.3449 66.3298 61.3353 66.3243 61.3253 66.3186C61.322 66.3167 61.3184 66.3157 61.3152 66.3138C60.2533 65.7271 59.0021 65.1236 57.5405 64.5523ZM61.0202 69.4814L61.2517 68.997C61.2586 69.0012 61.2658 69.0056 61.2727 69.0098C61.3608 69.0647 61.4453 69.1188 61.5292 69.1727C61.5569 69.1904 61.5864 69.2086 61.6138 69.2263C61.6891 69.275 61.7602 69.3226 61.832 69.3706C61.8741 69.3985 61.9178 69.427 61.9588 69.4546C62.0272 69.5008 62.092 69.5459 62.1575 69.5912C62.1978 69.6191 62.2394 69.6473 62.2784 69.6749C62.3409 69.7189 62.4003 69.7616 62.4598 69.8045C62.4892 69.8257 62.5192 69.8471 62.5478 69.868L60.6849 70.1851L61.0202 69.4814ZM71.1027 70.4446C70.7285 70.6512 70.4957 71.0457 70.4957 71.4742V77.3717L62.0033 72.3433L65.4029 71.7645C65.4153 71.7625 65.427 71.7583 65.4392 71.7558C65.4681 71.7498 65.4967 71.7431 65.525 71.7351C65.5454 71.7293 65.5658 71.723 65.5858 71.7161C65.6129 71.7067 65.6397 71.6964 65.6659 71.6849C65.6854 71.6766 65.7048 71.6682 65.7239 71.6588C65.7497 71.6461 65.7745 71.632 65.7992 71.6174C65.8172 71.6069 65.8351 71.5967 65.8523 71.5853C65.877 71.5688 65.9004 71.5508 65.9239 71.5326C65.9393 71.5206 65.9553 71.5093 65.97 71.4964C65.9943 71.4754 66.017 71.4526 66.0397 71.4295C66.0517 71.4173 66.0645 71.406 66.0759 71.3932C66.1023 71.3639 66.1267 71.3324 66.1501 71.3002C66.1561 71.2921 66.1629 71.2849 66.1686 71.2766C66.1964 71.2366 66.2218 71.1946 66.2447 71.1509L70.3652 63.2573L76.5754 67.4254L71.1027 70.4446Z" fill="white"/>
<path d="M64.3485 19.6355C64.2916 19.0819 63.8553 18.6444 63.3033 18.5872C49.7883 17.1889 40.8393 9.82901 40.7513 9.75552C40.3169 9.39149 39.6844 9.39149 39.2494 9.75489C39.1607 9.82917 30.2117 17.1891 16.6965 18.5872C16.1445 18.6444 15.7082 19.0819 15.6513 19.6355C15.629 19.8533 15.1131 25.0514 15.9179 32.1488C16.6637 38.7236 18.7419 48.2049 24.4071 56.0362C24.6361 56.3529 24.9938 56.5212 25.3561 56.5212C25.5946 56.5212 25.8353 56.4483 26.0431 56.2971C26.5667 55.916 26.6834 55.1812 26.3033 54.6561C20.9491 47.2545 18.9699 38.2176 18.2523 31.9399C17.6638 26.7923 17.8037 22.6032 17.9121 20.8132C29.5112 19.3668 37.5732 13.9599 39.9998 12.1456C42.4265 13.96 50.4876 19.3672 62.0882 20.8132C62.1683 22.1213 62.2654 24.7118 62.0794 28.0273C62.0432 28.6753 62.5374 29.2299 63.1833 29.2662C63.8311 29.3013 64.3827 28.8074 64.4188 28.1594C64.6997 23.1465 64.363 19.7767 64.3485 19.6355Z" fill="white"/>
<path d="M62.9643 31.689C62.323 31.6075 61.7363 32.0632 61.6551 32.7069C59.0474 53.3713 48.5385 61.9414 39.9995 65.4884C35.8731 63.7761 32.2545 61.3184 29.2388 58.1788C28.7902 57.7117 28.0483 57.6974 27.5824 58.1478C27.1164 58.598 27.1025 59.3419 27.5514 59.8091C30.9055 63.3007 34.9479 66.0054 39.5668 67.848C39.706 67.9035 39.8527 67.9313 39.9998 67.9313C40.1468 67.9313 40.2937 67.9035 40.4327 67.848C47.9855 64.8348 53.8967 59.5885 58.002 52.2549C61.0415 46.8253 63.0524 40.3478 63.9794 33.002C64.0607 32.3584 63.606 31.7705 62.9643 31.689Z" fill="white"/>
<path d="M53.0993 28.8367C51.4993 27.2322 48.8965 27.2325 47.2965 28.8369L36.8621 39.3017L33.0955 35.524C31.4956 33.9196 28.8928 33.9197 27.2928 35.5242C25.6931 37.1288 25.6931 39.7394 27.2928 41.3439L33.961 48.0313C34.7357 48.8086 35.7661 49.2364 36.8621 49.2364C37.9583 49.2364 38.9886 48.8083 39.7635 48.0312L53.0994 34.6565C54.6991 33.052 54.6991 30.4414 53.0993 28.8367ZM51.4429 32.995L38.1069 46.3697C37.7746 46.703 37.3325 46.8866 36.8624 46.8866C36.3922 46.8866 35.9502 46.703 35.6179 46.3697L28.9499 39.6823C28.2635 38.9939 28.2635 37.8741 28.9496 37.1857C29.2928 36.8416 29.7435 36.6695 30.1945 36.6695C30.6451 36.6695 31.0959 36.8418 31.439 37.1857L36.0338 41.7942C36.2536 42.0147 36.5514 42.1383 36.8622 42.1383C37.1729 42.1383 37.4708 42.0145 37.6907 41.7942L48.9534 30.4986C49.6399 29.81 50.7563 29.8098 51.4429 30.4982C52.1291 31.1868 52.1291 32.3068 51.4429 32.995Z" fill="white"/>
</g>
<defs>
<clipPath id="clip0_131_255">
<rect width="80" height="80.2329" fill="white" transform="translate(0 0.541504)"/>
</clipPath>
</defs>
</svg>
