<svg width="80" height="80" viewBox="0 0 80 80" fill="none" xmlns="http://www.w3.org/2000/svg">
<g clip-path="url(#clip0_131_240)">
<path d="M52.5 52.5C52.5 51.1739 51.9732 49.9021 51.0355 48.9645C50.0979 48.0268 48.8261 47.5 47.5 47.5H31.4125L32.5 38.9C32.5061 38.8502 32.5061 38.7998 32.5 38.75C32.5 31.825 27.6 30 25 30C24.7194 29.9896 24.4436 30.074 24.2168 30.2395C23.99 30.4051 23.8256 30.6421 23.75 30.9125L18.75 48.275C17.9101 49.9311 16.6074 51.3077 15 52.2375V51.25C15 50.9185 14.8683 50.6005 14.6339 50.3661C14.3995 50.1317 14.0815 50 13.75 50H1.25C0.918479 50 0.600537 50.1317 0.366117 50.3661C0.131696 50.6005 0 50.9185 0 51.25L0 78.75C0 79.0815 0.131696 79.3995 0.366117 79.6339C0.600537 79.8683 0.918479 80 1.25 80H13.75C14.0815 80 14.3995 79.8683 14.6339 79.6339C14.8683 79.3995 15 79.0815 15 78.75V77.9125L22.1625 80C22.2742 80.0191 22.3883 80.0191 22.5 80H43.75C44.697 79.9866 45.6207 79.7046 46.4136 79.1867C47.2065 78.6689 47.8361 77.9364 48.229 77.0747C48.6219 76.213 48.7619 75.2574 48.6329 74.3192C48.5038 73.3809 48.111 72.4986 47.5 71.775C48.1192 71.4023 48.6502 70.8999 49.0565 70.3022C49.4628 69.7046 49.7348 69.0259 49.8536 68.3131C49.9724 67.6002 49.9352 66.8701 49.7447 66.173C49.5542 65.4759 49.2148 64.8283 48.75 64.275C49.3692 63.9023 49.9002 63.3999 50.3065 62.8022C50.7128 62.2046 50.9848 61.5259 51.1036 60.8131C51.2224 60.1002 51.1852 59.3701 50.9947 58.673C50.8042 57.9759 50.4648 57.3283 50 56.775C50.7521 56.3409 51.3781 55.7184 51.8164 54.9688C52.2548 54.2192 52.4904 53.3683 52.5 52.5ZM12.5 77.5H2.5V52.5H12.5V77.5ZM43.75 77.5H22.675L15 75.3125V54.85C18.75 53.9875 21.0125 49.525 21.1125 49.3125C21.147 49.2397 21.1763 49.1645 21.2 49.0875L25.9125 32.6125C27.375 32.9375 29.975 34.15 30 38.675L28.75 48.6C28.7286 48.7745 28.7443 48.9515 28.796 49.1195C28.8477 49.2875 28.9343 49.4427 29.05 49.575C29.1685 49.7099 29.3147 49.8177 29.4787 49.8911C29.6426 49.9644 29.8204 50.0016 30 50H47.5C48.163 50 48.7989 50.2634 49.2678 50.7322C49.7366 51.2011 50 51.837 50 52.5C50 53.163 49.7366 53.7989 49.2678 54.2678C48.7989 54.7366 48.163 55 47.5 55H41.25C40.9185 55 40.6005 55.1317 40.3661 55.3661C40.1317 55.6005 40 55.9185 40 56.25C40 56.5815 40.1317 56.8995 40.3661 57.1339C40.6005 57.3683 40.9185 57.5 41.25 57.5H46.25C46.913 57.5 47.5489 57.7634 48.0178 58.2322C48.4866 58.7011 48.75 59.337 48.75 60C48.75 60.663 48.4866 61.2989 48.0178 61.7678C47.5489 62.2366 46.913 62.5 46.25 62.5H40C39.6685 62.5 39.3505 62.6317 39.1161 62.8661C38.8817 63.1005 38.75 63.4185 38.75 63.75C38.75 64.0815 38.8817 64.3995 39.1161 64.6339C39.3505 64.8683 39.6685 65 40 65H45C45.663 65 46.2989 65.2634 46.7678 65.7322C47.2366 66.2011 47.5 66.837 47.5 67.5C47.5 68.163 47.2366 68.7989 46.7678 69.2678C46.2989 69.7366 45.663 70 45 70H38.75C38.4185 70 38.1005 70.1317 37.8661 70.3661C37.6317 70.6005 37.5 70.9185 37.5 71.25C37.5 71.5815 37.6317 71.8995 37.8661 72.1339C38.1005 72.3683 38.4185 72.5 38.75 72.5H43.75C44.413 72.5 45.0489 72.7634 45.5178 73.2322C45.9866 73.7011 46.25 74.337 46.25 75C46.25 75.663 45.9866 76.2989 45.5178 76.7678C45.0489 77.2366 44.413 77.5 43.75 77.5Z" fill="white"/>
<path d="M16.25 18.75H17.5V20C17.5 20.3315 17.6317 20.6495 17.8661 20.8839C18.1005 21.1183 18.4185 21.25 18.75 21.25C19.0815 21.25 19.3995 21.1183 19.6339 20.8839C19.8683 20.6495 20 20.3315 20 20V18.75H21.25C21.5815 18.75 21.8995 18.6183 22.1339 18.3839C22.3683 18.1495 22.5 17.8315 22.5 17.5C22.5 17.1685 22.3683 16.8505 22.1339 16.6161C21.8995 16.3817 21.5815 16.25 21.25 16.25H20V15C20 14.6685 19.8683 14.3505 19.6339 14.1161C19.3995 13.8817 19.0815 13.75 18.75 13.75C18.4185 13.75 18.1005 13.8817 17.8661 14.1161C17.6317 14.3505 17.5 14.6685 17.5 15V16.25H16.25C15.9185 16.25 15.6005 16.3817 15.3661 16.6161C15.1317 16.8505 15 17.1685 15 17.5C15 17.8315 15.1317 18.1495 15.3661 18.3839C15.6005 18.6183 15.9185 18.75 16.25 18.75V18.75Z" fill="white"/>
<path d="M67.5 62.5H66.25V61.25C66.25 60.9185 66.1183 60.6005 65.8839 60.3661C65.6495 60.1317 65.3315 60 65 60C64.6685 60 64.3505 60.1317 64.1161 60.3661C63.8817 60.6005 63.75 60.9185 63.75 61.25V62.5H62.5C62.1685 62.5 61.8505 62.6317 61.6161 62.8661C61.3817 63.1005 61.25 63.4185 61.25 63.75C61.25 64.0815 61.3817 64.3995 61.6161 64.6339C61.8505 64.8683 62.1685 65 62.5 65H63.75V66.25C63.75 66.5815 63.8817 66.8995 64.1161 67.1339C64.3505 67.3683 64.6685 67.5 65 67.5C65.3315 67.5 65.6495 67.3683 65.8839 67.1339C66.1183 66.8995 66.25 66.5815 66.25 66.25V65H67.5C67.8315 65 68.1495 64.8683 68.3839 64.6339C68.6183 64.3995 68.75 64.0815 68.75 63.75C68.75 63.4185 68.6183 63.1005 68.3839 62.8661C68.1495 62.6317 67.8315 62.5 67.5 62.5Z" fill="white"/>
<path d="M52.5 -1.0887e-05C45.2065 -1.0887e-05 38.2118 2.8973 33.0546 8.05455C27.8973 13.2118 25 20.2065 25 27.5C25 27.8315 25.1317 28.1495 25.3661 28.3839C25.6005 28.6183 25.9185 28.75 26.25 28.75C26.5815 28.75 26.8995 28.6183 27.1339 28.3839C27.3683 28.1495 27.5 27.8315 27.5 27.5C27.5015 22.7597 28.8506 18.1174 31.3901 14.1147C33.9297 10.112 37.5548 6.91382 41.8429 4.89309C46.1309 2.87236 50.9051 2.1124 55.6086 2.70184C60.3122 3.29127 64.7512 5.20582 68.408 8.22219C72.0648 11.2386 74.7887 15.2324 76.2619 19.738C77.7352 24.2436 77.8971 29.0751 76.7288 33.6693C75.5605 38.2634 73.1102 42.4306 69.6635 45.6851C66.2169 48.9395 61.916 51.147 57.2625 52.05C56.931 52.0815 56.6255 52.2434 56.4134 52.5001C56.2012 52.7568 56.0998 53.0872 56.1312 53.4187C56.1627 53.7503 56.3246 54.0557 56.5813 54.2678C56.838 54.48 57.1685 54.5815 57.5 54.55H57.7375C64.5139 53.311 70.5785 49.5739 74.7316 44.0779C78.8847 38.5819 80.8239 31.7274 80.1655 24.8702C79.5071 18.013 76.2992 11.6526 71.1762 7.04729C66.0532 2.44192 59.3883 -0.0730044 52.5 -1.0887e-05V-1.0887e-05Z" fill="white"/>
<path d="M63.75 32.5C63.75 29.8478 62.6964 27.3043 60.8211 25.4289C58.9457 23.5536 56.4022 22.5 53.75 22.5H51.25C50.587 22.5 49.9511 22.2366 49.4822 21.7678C49.0134 21.2989 48.75 20.663 48.75 20C48.75 19.337 49.0134 18.7011 49.4822 18.2322C49.9511 17.7634 50.587 17.5 51.25 17.5H60C60.9946 17.5 61.9484 17.1049 62.6516 16.4017C63.3549 15.6984 63.75 14.7446 63.75 13.75C63.75 12.7554 63.3549 11.8016 62.6516 11.0983C61.9484 10.3951 60.9946 10 60 10H56.25V6.25C56.25 5.91848 56.1183 5.60054 55.8839 5.36612C55.6495 5.1317 55.3315 5 55 5H50C49.6685 5 49.3505 5.1317 49.1161 5.36612C48.8817 5.60054 48.75 5.91848 48.75 6.25V10.325C46.4 10.9392 44.3539 12.3877 42.9936 14.4C41.6334 16.4124 41.0521 18.851 41.3583 21.2606C41.6645 23.6701 42.8372 25.8859 44.6574 27.4941C46.4777 29.1023 48.8211 29.9931 51.25 30H53.75C54.413 30 55.0489 30.2634 55.5178 30.7322C55.9866 31.2011 56.25 31.837 56.25 32.5C56.25 33.163 55.9866 33.7989 55.5178 34.2678C55.0489 34.7366 54.413 35 53.75 35H45C44.0054 35 43.0516 35.3951 42.3484 36.0983C41.6451 36.8016 41.25 37.7554 41.25 38.75C41.25 39.7446 41.6451 40.6984 42.3484 41.4016C43.0516 42.1049 44.0054 42.5 45 42.5H48.75V46.25C48.75 46.5815 48.8817 46.8995 49.1161 47.1339C49.3505 47.3683 49.6685 47.5 50 47.5H55C55.3315 47.5 55.6495 47.3683 55.8839 47.1339C56.1183 46.8995 56.25 46.5815 56.25 46.25V42.175C58.3953 41.6211 60.2959 40.3704 61.6534 38.6192C63.0109 36.8681 63.7483 34.7157 63.75 32.5ZM54.825 39.9125C54.5247 39.955 54.25 40.1052 54.0522 40.3351C53.8544 40.5651 53.747 40.8592 53.75 41.1625V45H51.25V41.25C51.25 40.9185 51.1183 40.6005 50.8839 40.3661C50.6495 40.1317 50.3315 40 50 40H45C44.6685 40 44.3505 39.8683 44.1161 39.6339C43.8817 39.3995 43.75 39.0815 43.75 38.75C43.75 38.4185 43.8817 38.1005 44.1161 37.8661C44.3505 37.6317 44.6685 37.5 45 37.5H53.75C55.0761 37.5 56.3479 36.9732 57.2855 36.0355C58.2232 35.0979 58.75 33.8261 58.75 32.5C58.75 31.1739 58.2232 29.9021 57.2855 28.9645C56.3479 28.0268 55.0761 27.5 53.75 27.5H51.25C49.3656 27.4836 47.5564 26.7583 46.1824 25.4686C44.8085 24.1789 43.9703 22.4191 43.8349 20.5395C43.6994 18.6599 44.2764 16.7982 45.4512 15.3247C46.626 13.8513 48.3124 12.8741 50.175 12.5875C50.4753 12.545 50.75 12.3948 50.9478 12.1649C51.1456 11.9349 51.253 11.6408 51.25 11.3375V7.5H53.75V11.25C53.75 11.5815 53.8817 11.8995 54.1161 12.1339C54.3505 12.3683 54.6685 12.5 55 12.5H60C60.3315 12.5 60.6495 12.6317 60.8839 12.8661C61.1183 13.1005 61.25 13.4185 61.25 13.75C61.25 14.0815 61.1183 14.3995 60.8839 14.6339C60.6495 14.8683 60.3315 15 60 15H51.25C49.9239 15 48.6521 15.5268 47.7145 16.4645C46.7768 17.4021 46.25 18.6739 46.25 20C46.25 21.3261 46.7768 22.5979 47.7145 23.5355C48.6521 24.4732 49.9239 25 51.25 25H53.75C55.6344 25.0164 57.4436 25.7417 58.8176 27.0314C60.1915 28.3211 61.0297 30.0809 61.1651 31.9605C61.3006 33.8401 60.7236 35.7018 59.5488 37.1753C58.374 38.6487 56.6876 39.6259 54.825 39.9125V39.9125Z" fill="white"/>
</g>
<defs>
<clipPath id="clip0_131_240">
<rect width="80" height="80" fill="white"/>
</clipPath>
</defs>
</svg>
