<svg width="58" height="62" viewBox="0 0 58 62" fill="none" xmlns="http://www.w3.org/2000/svg">
<path d="M47 62H1C0.734783 62 0.48043 61.8946 0.292893 61.7071C0.105357 61.5196 0 61.2652 0 61V1C0 0.734783 0.105357 0.48043 0.292893 0.292893C0.48043 0.105357 0.734783 0 1 0H34C34.2652 5.66374e-05 34.5195 0.105451 34.707 0.293L47.707 13.293C47.8945 13.4805 47.9999 13.7348 48 14V41C48 41.2652 47.8946 41.5196 47.7071 41.7071C47.5196 41.8946 47.2652 42 47 42C46.7348 42 46.4804 41.8946 46.2929 41.7071C46.1054 41.5196 46 41.2652 46 41V14.414L33.586 2H2V60H47C47.2652 60 47.5196 60.1054 47.7071 60.2929C47.8946 60.4804 48 60.7348 48 61C48 61.2652 47.8946 61.5196 47.7071 61.7071C47.5196 61.8946 47.2652 62 47 62Z" fill="white"/>
<path d="M47 15H34C33.7348 15 33.4804 14.8946 33.2929 14.7071C33.1054 14.5196 33 14.2652 33 14V1C33 0.80225 33.0587 0.608952 33.1686 0.444542C33.2785 0.280132 33.4346 0.151993 33.6173 0.0763226C33.8 0.000652574 34.0011 -0.0191505 34.195 0.0194171C34.389 0.0579847 34.5671 0.153191 34.707 0.293L47.707 13.293C47.8468 13.4329 47.942 13.611 47.9806 13.805C48.0191 13.9989 47.9993 14.2 47.9237 14.3827C47.848 14.5654 47.7199 14.7215 47.5555 14.8314C47.391 14.9413 47.1977 15 47 15ZM35 13H44.586L35 3.414V13Z" fill="white"/>
<path d="M37 21H18C17.7348 21 17.4804 20.8946 17.2929 20.7071C17.1054 20.5196 17 20.2652 17 20C17 19.7348 17.1054 19.4804 17.2929 19.2929C17.4804 19.1054 17.7348 19 18 19H37C37.2652 19 37.5196 19.1054 37.7071 19.2929C37.8946 19.4804 38 19.7348 38 20C38 20.2652 37.8946 20.5196 37.7071 20.7071C37.5196 20.8946 37.2652 21 37 21Z" fill="white"/>
<path d="M37 30H18C17.7348 30 17.4804 29.8946 17.2929 29.7071C17.1054 29.5196 17 29.2652 17 29C17 28.7348 17.1054 28.4804 17.2929 28.2929C17.4804 28.1054 17.7348 28 18 28H37C37.2652 28 37.5196 28.1054 37.7071 28.2929C37.8946 28.4804 38 28.7348 38 29C38 29.2652 37.8946 29.5196 37.7071 29.7071C37.5196 29.8946 37.2652 30 37 30Z" fill="white"/>
<path d="M37 39H18C17.7348 39 17.4804 38.8946 17.2929 38.7071C17.1054 38.5196 17 38.2652 17 38C17 37.7348 17.1054 37.4804 17.2929 37.2929C17.4804 37.1054 17.7348 37 18 37H37C37.2652 37 37.5196 37.1054 37.7071 37.2929C37.8946 37.4804 38 37.7348 38 38C38 38.2652 37.8946 38.5196 37.7071 38.7071C37.5196 38.8946 37.2652 39 37 39Z" fill="white"/>
<path d="M30 48H18C17.7348 48 17.4804 47.8946 17.2929 47.7071C17.1054 47.5196 17 47.2652 17 47C17 46.7348 17.1054 46.4804 17.2929 46.2929C17.4804 46.1054 17.7348 46 18 46H30C30.2652 46 30.5196 46.1054 30.7071 46.2929C30.8946 46.4804 31 46.7348 31 47C31 47.2652 30.8946 47.5196 30.7071 47.7071C30.5196 47.8946 30.2652 48 30 48Z" fill="white"/>
<path d="M14 23H10C9.73478 23 9.48043 22.8946 9.29289 22.7071C9.10536 22.5196 9 22.2652 9 22V18C9 17.7348 9.10536 17.4804 9.29289 17.2929C9.48043 17.1054 9.73478 17 10 17H14C14.2652 17 14.5196 17.1054 14.7071 17.2929C14.8946 17.4804 15 17.7348 15 18V22C15 22.2652 14.8946 22.5196 14.7071 22.7071C14.5196 22.8946 14.2652 23 14 23ZM11 21H13V19H11V21Z" fill="white"/>
<path d="M14 32H10C9.73478 32 9.48043 31.8946 9.29289 31.7071C9.10536 31.5196 9 31.2652 9 31V27C9 26.7348 9.10536 26.4804 9.29289 26.2929C9.48043 26.1054 9.73478 26 10 26H14C14.2652 26 14.5196 26.1054 14.7071 26.2929C14.8946 26.4804 15 26.7348 15 27V31C15 31.2652 14.8946 31.5196 14.7071 31.7071C14.5196 31.8946 14.2652 32 14 32ZM11 30H13V28H11V30Z" fill="white"/>
<path d="M14 41H10C9.73478 41 9.48043 40.8946 9.29289 40.7071C9.10536 40.5196 9 40.2652 9 40V36C9 35.7348 9.10536 35.4804 9.29289 35.2929C9.48043 35.1054 9.73478 35 10 35H14C14.2652 35 14.5196 35.1054 14.7071 35.2929C14.8946 35.4804 15 35.7348 15 36V40C15 40.2652 14.8946 40.5196 14.7071 40.7071C14.5196 40.8946 14.2652 41 14 41ZM11 39H13V37H11V39Z" fill="white"/>
<path d="M14 50H10C9.73478 50 9.48043 49.8946 9.29289 49.7071C9.10536 49.5196 9 49.2652 9 49V45C9 44.7348 9.10536 44.4804 9.29289 44.2929C9.48043 44.1054 9.73478 44 10 44H14C14.2652 44 14.5196 44.1054 14.7071 44.2929C14.8946 44.4804 15 44.7348 15 45V49C15 49.2652 14.8946 49.5196 14.7071 49.7071C14.5196 49.8946 14.2652 50 14 50ZM11 48H13V46H11V48Z" fill="white"/>
<path d="M45.9999 55C45.7347 54.9999 45.4804 54.8945 45.2929 54.707L41.2929 50.707C41.1108 50.5184 41.01 50.2658 41.0122 50.0036C41.0145 49.7414 41.1197 49.4906 41.3051 49.3052C41.4905 49.1198 41.7413 49.0146 42.0035 49.0123C42.2657 49.01 42.5183 49.1108 42.7069 49.293L45.9999 52.586L52.2929 46.293C52.4815 46.1108 52.7341 46.01 52.9963 46.0123C53.2585 46.0146 53.5093 46.1198 53.6947 46.3052C53.8801 46.4906 53.9853 46.7414 53.9876 47.0036C53.9899 47.2658 53.8891 47.5184 53.7069 47.707L46.7069 54.707C46.5194 54.8945 46.2651 54.9999 45.9999 55Z" fill="white"/>
<path d="M47 62C44.8244 62 42.6977 61.3549 40.8887 60.1462C39.0798 58.9375 37.6699 57.2195 36.8373 55.2095C36.0048 53.1995 35.7869 50.9878 36.2114 48.854C36.6358 46.7202 37.6835 44.7602 39.2218 43.2218C40.7602 41.6834 42.7202 40.6358 44.854 40.2114C46.9878 39.7869 49.1995 40.0048 51.2095 40.8373C53.2195 41.6699 54.9375 43.0798 56.1462 44.8887C57.3549 46.6977 58 48.8244 58 51C57.9968 53.9164 56.8369 56.7125 54.7747 58.7747C52.7125 60.8369 49.9164 61.9968 47 62ZM47 42C45.22 42 43.4799 42.5278 41.9999 43.5168C40.5198 44.5057 39.3663 45.9113 38.6851 47.5558C38.0039 49.2004 37.8257 51.01 38.1729 52.7558C38.5202 54.5016 39.3774 56.1053 40.636 57.364C41.8947 58.6226 43.4984 59.4798 45.2442 59.8271C46.99 60.1743 48.7996 59.9961 50.4442 59.3149C52.0887 58.6337 53.4943 57.4802 54.4832 56.0001C55.4722 54.5201 56 52.78 56 51C55.9974 48.6139 55.0483 46.3262 53.361 44.639C51.6738 42.9517 49.3861 42.0026 47 42Z" fill="white"/>
</svg>
