<svg width="80" height="80" viewBox="0 0 80 80" fill="none" xmlns="http://www.w3.org/2000/svg">
<g clip-path="url(#clip0_131_276)">
<path d="M76.6294 35.9136C76.5007 29.6789 74.7764 23.5685 71.6336 18.2008C74.1908 5.96779 61.2562 -3.97973 50.1164 1.58289C39.6152 -1.54807 27.406 0.11683 17.7752 7.5727C16.5535 8.50957 18.0297 10.3297 19.2008 9.43207C22.1586 7.16425 25.4352 5.40611 28.9398 4.20605C32.5937 2.95492 36.4202 2.33872 40.3159 2.37184C42.7515 2.39308 45.1719 2.67204 47.5309 3.20186C46.6106 3.91615 45.7747 4.73399 45.0405 5.63774C26.8171 2.52444 9.46995 16.6163 8.63852 34.926C7.67776 34.8793 6.68763 34.9461 5.75873 35.1995C6.08221 27.434 9.0426 19.9081 13.9975 14.3569C15.0062 13.227 13.2582 11.6669 12.2496 12.7968C6.68201 19.0344 3.46358 27.583 3.38751 36.3042C1.35071 37.712 0.0136719 40.0631 0.0136719 42.7208V54.0408C0.0136719 59.0439 4.27377 61.9517 8.88937 61.8355C10.5226 66.5545 17.4074 65.5293 17.5245 60.4658V35.8936C17.5769 32.7645 14.1733 30.5406 11.3359 31.8337C13.7196 16.8747 28.1467 5.77676 43.5754 7.79591C40.2637 13.4497 41.3754 21.3914 46.1712 25.9487V29.1297C46.3276 30.0717 46.8701 30.4314 47.7987 30.2088L50.6502 29.0041C56.0289 31.524 63.0367 30.2371 67.1448 26.2091C67.8518 28.0357 68.3681 29.9194 68.6905 31.8453C65.8506 30.5315 62.4232 32.7484 62.4756 35.8934V60.4656C62.4419 63.7976 66.1591 65.9801 69.042 64.3388C69.036 65.3739 69.0171 66.4087 68.9765 67.4334C68.6976 70.7897 66.1097 73.6078 62.8093 74.152C61.7606 74.2551 60.5646 74.2951 59.102 74.2741C58.5776 72.3493 56.8143 70.9301 54.7256 70.9301H48.5051C42.4905 71.1785 42.4891 79.7512 48.5051 80H54.7253C56.8279 80 58.6007 78.5617 59.1119 76.6174C60.4338 76.6352 61.8334 76.6816 63.1459 76.4709C67.5233 75.7705 71.0199 72.0388 71.3751 67.5977C71.3763 67.5821 71.3745 67.5666 71.3751 67.5511C71.4566 65.5126 71.3951 63.4538 71.3751 61.4333C75.9031 61.6527 79.9862 58.3527 79.9862 53.6386V42.3186C79.9862 39.6682 78.6566 37.3226 76.6294 35.9136ZM2.35662 54.0408V42.7208C2.35662 39.3057 5.3623 37.0837 8.58994 37.2691V59.4925C5.36058 59.6715 2.35662 57.4663 2.35662 54.0408ZM13.0985 33.8106C14.2472 33.8106 15.1816 34.7451 15.1816 35.8936V60.4658C15.0668 63.23 11.1292 63.2276 11.0155 60.4658V35.8936C11.0155 34.7449 11.95 33.8106 13.0985 33.8106ZM54.7253 77.657H48.5051C47.2965 77.657 46.3131 76.6738 46.3131 75.465C46.3131 74.2562 47.2963 73.2729 48.5051 73.2729H54.7253C57.6317 73.3927 57.634 77.5365 54.7253 77.657ZM74.243 34.7979C73.3132 34.5439 72.3219 34.4772 71.3602 34.5239C71.1202 30.9773 70.2892 27.536 68.8847 24.2749C69.5799 23.3549 70.1727 22.3536 70.6458 21.2877C72.757 25.4848 73.9853 30.0904 74.243 34.7979ZM56.7981 27.9621C54.8308 27.9621 52.9433 27.5273 51.188 26.6699C50.8665 26.5207 50.5432 26.512 50.2178 26.6433L48.5142 27.3631V25.447C48.5142 25.1193 48.377 24.8066 48.1359 24.5848C39.606 16.7569 45.2081 2.36418 56.7982 2.37059C73.7761 3.073 73.7722 27.2616 56.7981 27.9621ZM77.6432 53.6386C77.6432 57.0907 74.5954 59.2866 71.3479 59.0903C71.3332 57.8314 71.3249 56.5724 71.3273 55.3135C71.3273 53.7988 68.9843 53.7988 68.9843 55.3135V60.4656C68.9843 61.6143 68.0498 62.5486 66.9013 62.5486C65.7528 62.5486 64.8183 61.6143 64.8183 60.4656V35.8936C64.9295 33.1369 68.8675 33.1242 68.9843 35.8936V49.0772C68.9843 50.5918 71.3273 50.5918 71.3273 49.0772V36.8669C74.5827 36.6825 77.6432 38.8366 77.6432 42.3186V53.6386Z" fill="white"/>
<path d="M50.6575 65.9937C51.5861 66.2163 52.1286 65.8567 52.2849 64.9146V61.0896C63.5078 50.1778 55.6772 30.8945 39.9998 30.9147C30.3003 30.9145 22.4089 38.8046 22.4089 48.5026C22.2602 61.0851 35.8282 69.8455 47.2234 64.543L50.6575 65.9937ZM46.684 62.208C36.7779 67.1964 24.6158 59.6059 24.752 48.5024C24.7519 40.0964 31.5922 33.2575 39.9999 33.2575C53.8097 33.2512 60.4827 50.3989 50.3203 59.7239C50.0791 59.9456 49.942 60.2584 49.942 60.5861V63.148L47.6542 62.1814C47.3422 62.0496 46.9883 62.0593 46.684 62.208Z" fill="white"/>
<path d="M36.8666 43.1033H43.1333C44.6479 43.1033 44.6479 40.7604 43.1333 40.7604H36.8666C35.3518 40.7604 35.3518 43.1033 36.8666 43.1033Z" fill="white"/>
<path d="M43.1334 53.9018H36.8667C35.3521 53.9018 35.3521 56.2447 36.8667 56.2447H43.1334C44.6481 56.2447 44.6481 53.9018 43.1334 53.9018Z" fill="white"/>
<path d="M46.486 47.3311H33.5139C31.9993 47.3311 31.9993 49.674 33.5139 49.674H46.486C48.0006 49.674 48.0006 47.3311 46.486 47.3311Z" fill="white"/>
<path d="M56.9007 6.22612C54.1335 6.17317 51.7942 8.46129 51.7942 11.2289C51.7942 12.7436 54.1371 12.7436 54.1371 11.2289C54.1371 9.78677 55.4067 8.53705 56.8535 8.5686C58.2406 8.59656 59.3835 9.70227 59.4553 11.0859C59.5334 12.59 58.3063 13.8899 56.7981 13.8899C56.1511 13.8899 55.6266 14.4144 55.6266 15.0614V19.0687C55.6266 19.7157 56.1511 20.2402 56.7981 20.2402C57.4451 20.2402 57.9696 19.7157 57.9696 19.0687V16.0923C60.2836 15.531 61.9185 13.3438 61.795 10.9643C61.6599 8.36007 59.51 6.27876 56.9007 6.22612Z" fill="white"/>
<path d="M56.7981 21.9192C55.2905 21.9192 55.288 24.2621 56.7981 24.2621C58.3056 24.2621 58.3081 21.9192 56.7981 21.9192Z" fill="white"/>
</g>
<defs>
<clipPath id="clip0_131_276">
<rect width="80" height="80" fill="white"/>
</clipPath>
</defs>
</svg>
