<svg width="121" height="121" viewBox="0 0 121 121" fill="none" xmlns="http://www.w3.org/2000/svg">
<path d="M52.1434 51.1981C50.1693 50.3383 48.3442 49.1705 46.7363 47.7383C39.4952 41.2912 41.6883 35.9219 38.5309 35.9219H16.543C14.0358 35.9219 11.6314 36.9178 9.8586 38.6906C8.0858 40.4634 7.08984 42.8679 7.08984 45.375C7.08984 47.8821 8.0858 50.2866 9.8586 52.0594C11.6314 53.8322 14.0358 54.8281 16.543 54.8281H51.425C51.8589 54.823 52.2778 54.6688 52.6114 54.3915C52.9451 54.1141 53.1732 53.7303 53.2574 53.3047C53.3417 52.8791 53.2769 52.4374 53.0741 52.0538C52.8713 51.6702 52.5427 51.3681 52.1434 51.1981V51.1981ZM16.543 51.0469C15.3005 51.0077 14.1112 50.534 13.1819 49.7084C12.2527 48.8828 11.6424 47.7575 11.4572 46.5283C11.271 45.7389 11.2598 44.9182 11.4244 44.124C11.589 43.3298 11.9254 42.5813 12.41 41.9309C12.8947 41.2805 13.5158 40.7441 14.2297 40.3592C14.9437 39.9744 15.7333 39.7504 16.543 39.7031H37.113C38.5636 44.1262 41.2224 48.0555 44.7889 51.0469H16.543Z" fill="white"/>
<path d="M88.8593 35.9219H82.469C82.0397 35.9083 81.6185 36.0413 81.2749 36.2991C80.9312 36.5568 80.6856 36.9239 80.5784 37.3398C78.8958 44.0516 73.1483 49.7423 68.7809 51.1981C68.3787 51.3694 68.0484 51.6747 67.846 52.0622C67.6436 52.4496 67.5817 52.8952 67.6708 53.3232C67.76 53.7511 67.9947 54.1349 68.3349 54.4093C68.6752 54.6837 69.1001 54.8317 69.5372 54.8281H94.5312C95.0326 54.8281 95.5135 54.6289 95.8681 54.2744C96.2227 53.9198 96.4218 53.4389 96.4218 52.9375V43.4844C96.4218 41.4787 95.6251 39.5551 94.2068 38.1369C92.7886 36.7186 90.865 35.9219 88.8593 35.9219V35.9219ZM76.2111 51.0469C77.3858 50.0485 78.4563 48.9336 79.4062 47.7194C81.3902 45.3525 82.9103 42.633 83.887 39.7031H88.8593C89.8622 39.7031 90.824 40.1015 91.5331 40.8106C92.2422 41.5198 92.6406 42.4815 92.6406 43.4844V51.0469H76.2111Z" fill="white"/>
<path d="M60.5001 7.5625C56.17 7.56446 51.9172 8.71035 48.1723 10.8842C44.4274 13.058 41.3233 16.1826 39.1741 19.9418C37.025 23.7009 35.9071 27.9611 35.9336 32.2911C35.9601 36.6211 37.1301 40.8673 39.3251 44.5998C43.1063 51.1603 50.0828 54.8281 51.4251 54.8281C71.3712 54.8281 69.7831 54.8281 70.3314 54.6769C94.3423 44.2784 87.1579 7.5625 60.5001 7.5625ZM80.3139 38.4742C79.436 41.2272 77.994 43.767 76.08 45.9317C74.1659 48.0964 71.8217 49.8385 69.197 51.0469C49.7046 51.0469 52.1814 51.217 51.0092 50.6687C47.4793 48.8589 44.5406 46.0772 42.5399 42.6519C40.5392 39.2265 39.5598 35.3004 39.7174 31.3367C39.8749 27.373 41.1628 23.5371 43.429 20.2813C45.6953 17.0256 48.8454 14.4859 52.5078 12.9619C56.1702 11.4379 60.1921 10.9931 64.099 11.68C68.0059 12.3668 71.6349 14.1568 74.5578 16.8386C77.4808 19.5204 79.5757 22.9823 80.5956 26.8158C81.6155 30.6493 81.5177 34.6945 80.3139 38.4742V38.4742Z" fill="#00C6AF"/>
<path d="M105.875 67.1172C105.877 67.7401 105.754 68.3571 105.514 68.9318C105.273 69.5065 104.92 70.0273 104.476 70.4636C102.585 72.3542 100.184 71.8437 96.4218 71.8437C94.5881 71.8265 92.7899 72.3495 91.2514 73.3475C89.7129 74.3454 88.5023 75.7742 87.7704 77.4557C87.0385 79.1371 86.8179 80.9968 87.1359 82.8028C87.454 84.6088 88.2966 86.2813 89.5589 87.6116C93.0943 91.355 97.0079 90.75 102.094 90.75C104.099 90.75 106.023 89.9532 107.441 88.535C108.859 87.1167 109.656 85.1932 109.656 83.1875V67.1172C109.656 66.6158 109.457 66.1349 109.102 65.7803C108.748 65.4258 108.267 65.2266 107.766 65.2266C107.264 65.2266 106.783 65.4258 106.429 65.7803C106.074 66.1349 105.875 66.6158 105.875 67.1172ZM105.875 83.1875C105.875 84.1903 105.477 85.1521 104.767 85.8612C104.058 86.5704 103.097 86.9687 102.094 86.9687H96.8567C95.8845 87.0166 94.916 86.8193 94.0401 86.3948C93.1642 85.9704 92.4091 85.3325 91.8443 84.5399C91.2795 83.7472 90.923 82.8253 90.8078 81.8588C90.6926 80.8924 90.8222 79.9125 91.1848 79.0092C94.2098 72.6 100.335 77.9694 105.837 74.1881L105.875 83.1875Z" fill="white"/>
<path d="M51.425 54.8281H69.5939C67.7033 54.8281 66.6256 52.3136 69.1591 51.0469C49.7991 51.0469 51.5762 51.0469 52.1434 51.1981C52.5427 51.3681 52.8713 51.6702 53.0741 52.0538C53.2769 52.4374 53.3417 52.8791 53.2574 53.3047C53.1732 53.7303 52.9451 54.1141 52.6114 54.3915C52.2778 54.6688 51.8589 54.823 51.425 54.8281V54.8281ZM51.425 54.8281H69.5939C67.7033 54.8281 66.6256 52.3136 69.1591 51.0469C49.7991 51.0469 51.5762 51.0469 52.1434 51.1981C52.5427 51.3681 52.8713 51.6702 53.0741 52.0538C53.2769 52.4374 53.3417 52.8791 53.2574 53.3047C53.1732 53.7303 52.9451 54.1141 52.6114 54.3915C52.2778 54.6688 51.8589 54.823 51.425 54.8281V54.8281ZM51.425 54.8281H69.5939C67.7033 54.8281 66.6256 52.3136 69.1591 51.0469C49.7991 51.0469 51.5762 51.0469 52.1434 51.1981C52.5427 51.3681 52.8713 51.6702 53.0741 52.0538C53.2769 52.4374 53.3417 52.8791 53.2574 53.3047C53.1732 53.7303 52.9451 54.1141 52.6114 54.3915C52.2778 54.6688 51.8589 54.823 51.425 54.8281V54.8281ZM96.4219 51.2927C95.1741 50.9334 100.033 51.0469 17.0156 51.0469C15.5114 51.0469 14.0687 50.4493 13.005 49.3856C11.9413 48.3219 11.3438 46.8793 11.3438 45.375C11.3438 44.8736 11.1446 44.3927 10.79 44.0381C10.4354 43.6836 9.95455 43.4844 9.45312 43.4844C8.9517 43.4844 8.47081 43.6836 8.11625 44.0381C7.76169 44.3927 7.5625 44.8736 7.5625 45.375V105.875C7.5625 107.881 8.35926 109.804 9.7775 111.222C11.1957 112.641 13.1193 113.438 15.125 113.438H94.5312C96.5369 113.438 98.4605 112.641 99.8787 111.222C101.297 109.804 102.094 107.881 102.094 105.875V88.8594C102.094 88.358 101.895 87.8771 101.54 87.5225C101.185 87.1679 100.705 86.9688 100.203 86.9688H96.8567C95.8846 87.0166 94.916 86.8193 94.0402 86.3948C93.1643 85.9704 92.4092 85.3325 91.8444 84.5399C91.2795 83.7472 90.9231 82.8253 90.8079 81.8588C90.6926 80.8924 90.8222 79.9125 91.1848 79.0092C94.2098 72.6378 102.094 78.0261 102.094 73.7344V58.6094C102.093 56.9338 101.535 55.306 100.508 53.9817C99.4816 52.6574 98.0443 51.7116 96.4219 51.2927V51.2927ZM89.748 74.6041C88.0764 76.2647 87.0852 78.4897 86.9688 80.8431C86.9484 82.1481 87.1901 83.444 87.6796 84.6539C88.169 85.8638 88.8963 86.9632 89.8183 87.887C90.7403 88.8107 91.8383 89.5401 93.0473 90.0319C94.2563 90.5237 95.5517 90.7679 96.8567 90.75H98.3125V105.875C98.3125 106.878 97.9141 107.84 97.205 108.549C96.4959 109.258 95.5341 109.656 94.5312 109.656H15.125C14.1222 109.656 13.1604 109.258 12.4513 108.549C11.7421 107.84 11.3438 106.878 11.3438 105.875V52.9375C14.8792 55.5844 10.6631 54.8281 94.5312 54.8281C95.5341 54.8281 96.4959 55.2265 97.205 55.9356C97.9141 56.6448 98.3125 57.6065 98.3125 58.6094V71.8438C95.4198 71.8438 92.6406 71.8437 89.748 74.6041V74.6041ZM51.425 54.8281H69.5939C67.7033 54.8281 66.6256 52.3136 69.1591 51.0469C49.7991 51.0469 51.5762 51.0469 52.1434 51.1981C52.5427 51.3681 52.8713 51.6702 53.0741 52.0538C53.2769 52.4374 53.3417 52.8791 53.2574 53.3047C53.1732 53.7303 52.9451 54.1141 52.6114 54.3915C52.2778 54.6688 51.8589 54.823 51.425 54.8281V54.8281ZM51.425 54.8281H69.5939C67.7033 54.8281 66.6256 52.3136 69.1591 51.0469C49.7991 51.0469 51.5762 51.0469 52.1434 51.1981C52.5427 51.3681 52.8713 51.6702 53.0741 52.0538C53.2769 52.4374 53.3417 52.8791 53.2574 53.3047C53.1732 53.7303 52.9451 54.1141 52.6114 54.3915C52.2778 54.6688 51.8589 54.823 51.425 54.8281V54.8281Z" fill="white"/>
<path d="M100.203 58.6094C99.7017 58.6094 99.2208 58.8086 98.8662 59.1631C98.5117 59.5177 98.3125 59.9986 98.3125 60.5V73.7344C98.3125 74.2358 98.5117 74.7167 98.8662 75.0713C99.2208 75.4258 99.7017 75.625 100.203 75.625C112.927 75.625 112.7 58.6094 100.203 58.6094ZM102.094 71.8438V62.5797C103.162 62.7966 104.123 63.3763 104.813 64.2205C105.503 65.0647 105.88 66.1214 105.88 67.2117C105.88 68.302 105.503 69.3588 104.813 70.2029C104.123 71.0471 103.162 71.6268 102.094 71.8438V71.8438Z" fill="white"/>
<path opacity="0.5" d="M102.094 71.8437V62.5797C103.162 62.7966 104.123 63.3763 104.813 64.2205C105.503 65.0647 105.88 66.1214 105.88 67.2117C105.88 68.302 105.503 69.3588 104.813 70.2029C104.123 71.0471 103.162 71.6268 102.094 71.8437V71.8437Z" fill="#231F20"/>
<path d="M67.3062 31.1386C67.7093 30.42 67.9509 29.6223 68.0143 28.8008C68.0778 27.9794 67.9615 27.154 67.6736 26.3821C67.3857 25.6102 66.9331 24.9102 66.3472 24.331C65.7614 23.7517 65.0564 23.307 64.2813 23.0278V20.7969C64.2813 20.2955 64.0821 19.8146 63.7275 19.46C63.3729 19.1054 62.8921 18.9062 62.3906 18.9062C61.8892 18.9062 61.4083 19.1054 61.0538 19.46C60.6992 19.8146 60.5 20.2955 60.5 20.7969V22.6875H58.6094V20.7969C58.6094 20.2955 58.4102 19.8146 58.0556 19.46C57.7011 19.1054 57.2202 18.9062 56.7188 18.9062C56.2173 18.9062 55.7364 19.1054 55.3819 19.46C55.0273 19.8146 54.8281 20.2955 54.8281 20.7969V22.6875H52.9375C52.4361 22.6875 51.9552 22.8867 51.6006 23.2413C51.2461 23.5958 51.0469 24.0767 51.0469 24.5781C51.0469 25.0795 51.2461 25.5604 51.6006 25.915C51.9552 26.2696 52.4361 26.4688 52.9375 26.4688V37.8125C52.4361 37.8125 51.9552 38.0117 51.6006 38.3662C51.2461 38.7208 51.0469 39.2017 51.0469 39.7031C51.0469 40.2045 51.2461 40.6854 51.6006 41.04C51.9552 41.3946 52.4361 41.5938 52.9375 41.5938H54.8281V43.4844C54.8281 43.9858 55.0273 44.4667 55.3819 44.8213C55.7364 45.1758 56.2173 45.375 56.7188 45.375C57.2202 45.375 57.7011 45.1758 58.0556 44.8213C58.4102 44.4667 58.6094 43.9858 58.6094 43.4844V41.5938H60.5V43.4844C60.5 43.9858 60.6992 44.4667 61.0538 44.8213C61.4083 45.1758 61.8892 45.375 62.3906 45.375C62.8921 45.375 63.3729 45.1758 63.7275 44.8213C64.0821 44.4667 64.2813 43.9858 64.2813 43.4844V41.5938C65.5066 41.5888 66.6975 41.1871 67.6755 40.4489C68.6535 39.7106 69.3661 38.6754 69.7067 37.4983C70.0473 36.3212 69.9975 35.0655 69.5648 33.919C69.132 32.7726 68.3397 31.7971 67.3062 31.1386V31.1386ZM62.3906 26.4688C62.8921 26.4688 63.3729 26.6679 63.7275 27.0225C64.0821 27.3771 64.2813 27.858 64.2813 28.3594C64.2813 28.8608 64.0821 29.3417 63.7275 29.6962C63.3729 30.0508 62.8921 30.25 62.3906 30.25H56.7188V26.4688H62.3906ZM64.2813 37.8125H56.7188V34.0312H64.2813C64.7827 34.0312 65.2636 34.2304 65.6181 34.585C65.9727 34.9396 66.1719 35.4205 66.1719 35.9219C66.1719 36.4233 65.9727 36.9042 65.6181 37.2588C65.2636 37.6133 64.7827 37.8125 64.2813 37.8125Z" fill="#00C6AF"/>
</svg>
