<svg width="60" height="60" viewBox="0 0 60 60" fill="none" xmlns="http://www.w3.org/2000/svg">
<g clip-path="url(#clip0_83_119)">
<path d="M34.1533 6.10352e-05C33.506 6.10352e-05 32.9814 0.524657 32.9814 1.17193C32.9814 1.81921 33.506 2.34381 34.1533 2.34381C47.113 2.34381 57.6562 12.8875 57.6562 25.8467C57.6562 26.494 58.1813 27.0186 58.8281 27.0186C59.4754 27.0186 60 26.494 60 25.8467C60 11.5952 48.4053 6.10352e-05 34.1533 6.10352e-05Z" fill="url(#paint0_linear_83_119)"/>
<path d="M51.7786 27.019C52.4258 27.019 52.9504 26.494 52.9504 25.8471C52.9504 15.482 44.518 7.04956 34.1533 7.04956C33.506 7.04956 32.9814 7.57461 32.9814 8.22143C32.9814 8.86871 33.506 9.39331 34.1533 9.39331C43.2257 9.39331 50.6067 16.7743 50.6067 25.8471C50.6067 26.494 51.1313 27.019 51.7786 27.019Z" fill="url(#paint1_linear_83_119)"/>
<path d="M43.5558 25.8472C43.5558 26.494 44.0804 27.019 44.7276 27.019C45.3749 27.019 45.8995 26.494 45.8995 25.8472C45.8995 19.3703 40.6302 14.101 34.1533 14.101C33.506 14.101 32.9814 14.6255 32.9814 15.2724C32.9814 15.9196 33.506 16.4442 34.1533 16.4442C39.3379 16.4442 43.5558 20.6621 43.5558 25.8472Z" fill="url(#paint2_linear_83_119)"/>
<path d="M32.9814 22.3224C32.9814 22.9692 33.506 23.4938 34.1533 23.4938C35.4506 23.4938 36.5062 24.5494 36.5062 25.8472C36.5062 26.494 37.0308 27.019 37.6781 27.019C38.3249 27.019 38.85 26.494 38.85 25.8472C38.85 23.2571 36.7429 21.1505 34.1533 21.1505C33.506 21.1505 32.9814 21.6751 32.9814 22.3224Z" fill="url(#paint3_linear_83_119)"/>
<path d="M21.9648 38.0484C21.9648 38.6957 21.4402 39.2203 20.793 39.2203C20.1457 39.2203 19.6211 38.6957 19.6211 38.0484C19.6211 37.4016 20.1457 36.8765 20.793 36.8765C21.4402 36.8765 21.9648 37.4016 21.9648 38.0484Z" fill="url(#paint4_linear_83_119)"/>
<path d="M32.1131 58.5772C37.4493 61.1924 43.8689 60.1043 48.0886 55.8847L50.5115 53.4617C51.8271 52.1475 51.8276 50.0184 50.512 48.7033L41.1498 39.342C39.8365 38.0269 37.707 38.025 36.3923 39.3416L32.4143 43.32C31.6352 44.0991 30.4327 44.2579 29.5556 43.6981C28.1255 42.7839 26.7344 41.7759 25.4211 40.702C24.9198 40.2923 24.1819 40.3665 23.7722 40.8673C23.3625 41.3685 23.4367 42.1069 23.9375 42.5161C25.3213 43.6477 26.7866 44.7097 28.294 45.6729C30.0907 46.8205 32.5205 46.528 34.0714 44.9771L38.0503 40.9982C38.4481 40.6 39.0926 40.599 39.4923 40.9987L48.8549 50.3604C49.2536 50.7595 49.2545 51.405 48.8549 51.8037L46.4315 54.2276C42.9163 57.7427 37.577 58.645 33.1445 56.4729C16.9062 48.5101 8.07141 35.8841 3.51941 26.694C1.34183 22.299 2.24592 16.9798 5.76932 13.4573L8.13961 11.0875C8.53695 10.6893 9.18194 10.6879 9.58111 11.088L18.9447 20.4511C19.3411 20.847 19.3452 21.4925 18.9437 21.893L14.9658 25.8714C13.4149 27.4223 13.1224 29.8521 14.27 31.6493C14.9461 32.7072 15.6749 33.7509 16.4366 34.7511C16.8284 35.2661 17.5636 35.3654 18.0786 34.9736C18.5935 34.5817 18.6933 33.8466 18.301 33.3311C17.5787 32.3822 16.8866 31.3916 16.2448 30.3877C15.6849 29.5102 15.8438 28.3076 16.6229 27.5285L20.6004 23.551C21.9155 22.2377 21.9169 20.1077 20.6013 18.7935L11.2387 9.43132C9.92581 8.11617 7.79583 8.11434 6.4816 9.43087L4.11222 11.8002C-0.123008 16.0341 -1.20516 22.4377 1.4192 27.7345C6.13278 37.25 15.2835 50.3247 32.1131 58.5772Z" fill="url(#paint5_linear_83_119)"/>
</g>
<defs>
<linearGradient id="paint0_linear_83_119" x1="46.4907" y1="6.10352e-05" x2="46.4907" y2="27.0186" gradientUnits="userSpaceOnUse">
<stop stop-color="#F9579E"/>
<stop offset="1" stop-color="#FF5860"/>
</linearGradient>
<linearGradient id="paint1_linear_83_119" x1="42.9659" y1="7.04956" x2="42.9659" y2="27.019" gradientUnits="userSpaceOnUse">
<stop stop-color="#F9579E"/>
<stop offset="1" stop-color="#FF5860"/>
</linearGradient>
<linearGradient id="paint2_linear_83_119" x1="39.4405" y1="14.101" x2="39.4405" y2="27.019" gradientUnits="userSpaceOnUse">
<stop stop-color="#F9579E"/>
<stop offset="1" stop-color="#FF5860"/>
</linearGradient>
<linearGradient id="paint3_linear_83_119" x1="35.9157" y1="21.1505" x2="35.9157" y2="27.019" gradientUnits="userSpaceOnUse">
<stop stop-color="#F9579E"/>
<stop offset="1" stop-color="#FF5860"/>
</linearGradient>
<linearGradient id="paint4_linear_83_119" x1="20.793" y1="36.8765" x2="20.793" y2="39.2203" gradientUnits="userSpaceOnUse">
<stop stop-color="#F9579E"/>
<stop offset="1" stop-color="#FF5860"/>
</linearGradient>
<linearGradient id="paint5_linear_83_119" x1="25.7492" y1="8.44421" x2="25.7492" y2="59.9886" gradientUnits="userSpaceOnUse">
<stop stop-color="#F9579E"/>
<stop offset="1" stop-color="#FF5860"/>
</linearGradient>
<clipPath id="clip0_83_119">
<rect width="60" height="60" fill="white"/>
</clipPath>
</defs>
</svg>
