<svg width="103" height="107" viewBox="0 0 103 107" fill="none" xmlns="http://www.w3.org/2000/svg">
<path d="M45.1434 44.1981C43.1693 43.3383 41.3442 42.1705 39.7363 40.7383C32.4952 34.2912 34.6883 28.9219 31.5309 28.9219H9.54297C7.03584 28.9219 4.63141 29.9178 2.8586 31.6906C1.0858 33.4634 0.0898438 35.8679 0.0898438 38.375C0.0898438 40.8821 1.0858 43.2866 2.8586 45.0594C4.63141 46.8322 7.03584 47.8281 9.54297 47.8281H44.425C44.8589 47.823 45.2778 47.6688 45.6114 47.3915C45.9451 47.1141 46.1732 46.7303 46.2574 46.3047C46.3417 45.8791 46.2769 45.4374 46.0741 45.0538C45.8713 44.6702 45.5427 44.3681 45.1434 44.1981ZM9.54297 44.0469C8.30054 44.0077 7.1112 43.534 6.18195 42.7084C5.25269 41.8828 4.64236 40.7575 4.45719 39.5283C4.27097 38.7389 4.25977 37.9182 4.42438 37.124C4.58898 36.3298 4.92541 35.5813 5.41004 34.9309C5.89467 34.2805 6.51577 33.7441 7.22974 33.3592C7.94372 32.9744 8.73326 32.7504 9.54297 32.7031H30.113C31.5636 37.1262 34.2224 41.0555 37.7889 44.0469H9.54297Z" fill="white"/>
<path d="M81.8594 28.9219H75.4691C75.0397 28.9083 74.6186 29.0413 74.2749 29.2991C73.9313 29.5568 73.6856 29.9239 73.5784 30.3398C71.8958 37.0516 66.1483 42.7423 61.7809 44.1981C61.3788 44.3694 61.0484 44.6747 60.846 45.0622C60.6436 45.4496 60.5817 45.8952 60.6709 46.3232C60.76 46.7511 60.9947 47.1349 61.335 47.4093C61.6752 47.6837 62.1001 47.8317 62.5372 47.8281H87.5313C88.0327 47.8281 88.5136 47.6289 88.8681 47.2744C89.2227 46.9198 89.4219 46.4389 89.4219 45.9375V36.4844C89.4219 34.4787 88.6251 32.5551 87.2069 31.1369C85.7886 29.7186 83.8651 28.9219 81.8594 28.9219ZM69.2111 44.0469C70.3858 43.0485 71.4563 41.9336 72.4063 40.7194C74.3902 38.3525 75.9103 35.633 76.887 32.7031H81.8594C82.8622 32.7031 83.824 33.1015 84.5331 33.8106C85.2423 34.5198 85.6406 35.4815 85.6406 36.4844V44.0469H69.2111Z" fill="white"/>
<path d="M53.5 0.5625C49.1699 0.564461 44.9172 1.71035 41.1723 3.88419C37.4274 6.05803 34.3232 9.18265 32.1741 12.9418C30.0249 16.7009 28.907 20.9611 28.9335 25.2911C28.96 29.6211 30.13 33.8673 32.325 37.5998C36.1063 44.1603 43.0827 47.8281 44.425 47.8281C64.3711 47.8281 62.783 47.8281 63.3313 47.6769C87.3422 37.2784 80.1579 0.5625 53.5 0.5625ZM73.3138 31.4742C72.4359 34.2272 70.9939 36.767 69.0799 38.9317C67.1658 41.0964 64.8217 42.8385 62.1969 44.0469C42.7046 44.0469 45.1813 44.217 44.0091 43.6687C40.4792 41.8589 37.5406 39.0772 35.5399 35.6519C33.5391 32.2265 32.5598 28.3004 32.7173 24.3367C32.8748 20.373 34.1627 16.5371 36.429 13.2813C38.6953 10.0256 41.8454 7.48592 45.5078 5.96189C49.1702 4.43786 53.192 3.99306 57.099 4.67996C61.0059 5.36685 64.6348 7.15678 67.5578 9.83861C70.4807 12.5204 72.5757 15.9823 73.5956 19.8158C74.6154 23.6493 74.5177 27.6945 73.3138 31.4742Z" fill="#9467FE"/>
<path d="M98.875 60.1172C98.8768 60.7401 98.7539 61.3571 98.5136 61.9318C98.2734 62.5065 97.9205 63.0273 97.4759 63.4636C95.5853 65.3542 93.1842 64.8437 89.4219 64.8437C87.5882 64.8265 85.7899 65.3495 84.2514 66.3475C82.713 67.3454 81.5023 68.7742 80.7705 70.4557C80.0386 72.1371 79.8179 73.9968 80.136 75.8028C80.454 77.6088 81.2967 79.2813 82.5589 80.6116C86.0944 84.355 90.008 83.75 95.0938 83.75C97.0995 83.75 99.023 82.9532 100.441 81.535C101.859 80.1167 102.656 78.1932 102.656 76.1875V60.1172C102.656 59.6158 102.457 59.1349 102.103 58.7803C101.748 58.4258 101.267 58.2266 100.766 58.2266C100.264 58.2266 99.7833 58.4258 99.4288 58.7803C99.0742 59.1349 98.875 59.6158 98.875 60.1172ZM98.875 76.1875C98.875 77.1903 98.4766 78.1521 97.7675 78.8612C97.0584 79.5704 96.0966 79.9687 95.0938 79.9687H89.8567C88.8846 80.0166 87.916 79.8193 87.0402 79.3948C86.1643 78.9704 85.4092 78.3325 84.8444 77.5399C84.2795 76.7472 83.9231 75.8253 83.8079 74.8588C83.6926 73.8924 83.8223 72.9125 84.1848 72.0092C87.2098 65.6 93.3355 70.9694 98.8372 67.1881L98.875 76.1875Z" fill="white"/>
<path d="M44.425 47.8281H62.5939C60.7033 47.8281 59.6256 45.3136 62.1591 44.0469C42.7991 44.0469 44.5762 44.0469 45.1434 44.1981C45.5427 44.3681 45.8713 44.6702 46.0741 45.0538C46.2769 45.4374 46.3417 45.8791 46.2574 46.3047C46.1732 46.7303 45.9451 47.1141 45.6114 47.3914C45.2778 47.6688 44.8589 47.823 44.425 47.8281ZM44.425 47.8281H62.5939C60.7033 47.8281 59.6256 45.3136 62.1591 44.0469C42.7991 44.0469 44.5762 44.0469 45.1434 44.1981C45.5427 44.3681 45.8713 44.6702 46.0741 45.0538C46.2769 45.4374 46.3417 45.8791 46.2574 46.3047C46.1732 46.7303 45.9451 47.1141 45.6114 47.3914C45.2778 47.6688 44.8589 47.823 44.425 47.8281ZM44.425 47.8281H62.5939C60.7033 47.8281 59.6256 45.3136 62.1591 44.0469C42.7991 44.0469 44.5762 44.0469 45.1434 44.1981C45.5427 44.3681 45.8713 44.6702 46.0741 45.0538C46.2769 45.4374 46.3417 45.8791 46.2574 46.3047C46.1732 46.7303 45.9451 47.1141 45.6114 47.3914C45.2778 47.6688 44.8589 47.823 44.425 47.8281ZM89.4219 44.2927C88.1741 43.9334 93.033 44.0469 10.0156 44.0469C8.51135 44.0469 7.06869 43.4493 6.005 42.3856C4.94132 41.3219 4.34375 39.8793 4.34375 38.375C4.34375 37.8736 4.14456 37.3927 3.79 37.0381C3.43544 36.6836 2.95455 36.4844 2.45312 36.4844C1.9517 36.4844 1.47081 36.6836 1.11625 37.0381C0.761691 37.3927 0.5625 37.8736 0.5625 38.375V98.875C0.5625 100.881 1.35926 102.804 2.7775 104.222C4.19575 105.641 6.1193 106.438 8.125 106.438H87.5312C89.5369 106.438 91.4605 105.641 92.8787 104.222C94.297 102.804 95.0938 100.881 95.0938 98.875V81.8594C95.0938 81.3579 94.8946 80.8771 94.54 80.5225C94.1854 80.1679 93.7046 79.9688 93.2031 79.9688H89.8567C88.8846 80.0166 87.916 79.8193 87.0402 79.3948C86.1643 78.9704 85.4092 78.3325 84.8444 77.5399C84.2795 76.7472 83.9231 75.8253 83.8079 74.8588C83.6926 73.8924 83.8222 72.9125 84.1848 72.0092C87.2098 65.6378 95.0938 71.0261 95.0938 66.7344V51.6094C95.0925 49.9338 94.5348 48.306 93.5082 46.9817C92.4816 45.6574 91.0443 44.7116 89.4219 44.2927ZM82.748 67.6041C81.0764 69.2647 80.0852 71.4897 79.9688 73.8431C79.9484 75.1481 80.1901 76.444 80.6796 77.6539C81.169 78.8638 81.8963 79.9632 82.8183 80.887C83.7403 81.8107 84.8383 82.5401 86.0473 83.0319C87.2563 83.5237 88.5517 83.7679 89.8567 83.75H91.3125V98.875C91.3125 99.8778 90.9141 100.84 90.205 101.549C89.4959 102.258 88.5341 102.656 87.5312 102.656H8.125C7.12215 102.656 6.16037 102.258 5.45125 101.549C4.74213 100.84 4.34375 99.8778 4.34375 98.875V45.9375C7.87922 48.5844 3.66312 47.8281 87.5312 47.8281C88.5341 47.8281 89.4959 48.2265 90.205 48.9356C90.9141 49.6448 91.3125 50.6065 91.3125 51.6094V64.8438C88.4198 64.8438 85.6406 64.8437 82.748 67.6041ZM44.425 47.8281H62.5939C60.7033 47.8281 59.6256 45.3136 62.1591 44.0469C42.7991 44.0469 44.5762 44.0469 45.1434 44.1981C45.5427 44.3681 45.8713 44.6702 46.0741 45.0538C46.2769 45.4374 46.3417 45.8791 46.2574 46.3047C46.1732 46.7303 45.9451 47.1141 45.6114 47.3914C45.2778 47.6688 44.8589 47.823 44.425 47.8281ZM44.425 47.8281H62.5939C60.7033 47.8281 59.6256 45.3136 62.1591 44.0469C42.7991 44.0469 44.5762 44.0469 45.1434 44.1981C45.5427 44.3681 45.8713 44.6702 46.0741 45.0538C46.2769 45.4374 46.3417 45.8791 46.2574 46.3047C46.1732 46.7303 45.9451 47.1141 45.6114 47.3914C45.2778 47.6688 44.8589 47.823 44.425 47.8281Z" fill="white"/>
<path d="M93.2031 51.6094C92.7017 51.6094 92.2208 51.8086 91.8662 52.1631C91.5117 52.5177 91.3125 52.9986 91.3125 53.5V66.7344C91.3125 67.2358 91.5117 67.7167 91.8662 68.0713C92.2208 68.4258 92.7017 68.625 93.2031 68.625C105.927 68.625 105.7 51.6094 93.2031 51.6094ZM95.0938 64.8438V55.5797C96.1622 55.7966 97.1228 56.3763 97.8128 57.2205C98.5028 58.0647 98.8797 59.1214 98.8797 60.2117C98.8797 61.302 98.5028 62.3588 97.8128 63.2029C97.1228 64.0471 96.1622 64.6268 95.0938 64.8438Z" fill="white"/>
<path opacity="0.5" d="M95.0938 64.8437V55.5797C96.1622 55.7966 97.1228 56.3763 97.8128 57.2205C98.5028 58.0647 98.8797 59.1214 98.8797 60.2117C98.8797 61.302 98.5028 62.3588 97.8128 63.2029C97.1228 64.0471 96.1622 64.6268 95.0938 64.8437Z" fill="#231F20"/>
<path d="M60.3062 24.1386C60.7093 23.42 60.9509 22.6223 61.0143 21.8008C61.0778 20.9794 60.9615 20.154 60.6736 19.3821C60.3857 18.6102 59.9331 17.9102 59.3472 17.331C58.7614 16.7517 58.0564 16.307 57.2813 16.0278V13.7969C57.2813 13.2955 57.0821 12.8146 56.7275 12.46C56.3729 12.1054 55.8921 11.9062 55.3906 11.9062C54.8892 11.9062 54.4083 12.1054 54.0538 12.46C53.6992 12.8146 53.5 13.2955 53.5 13.7969V15.6875H51.6094V13.7969C51.6094 13.2955 51.4102 12.8146 51.0556 12.46C50.7011 12.1054 50.2202 11.9062 49.7188 11.9062C49.2173 11.9062 48.7364 12.1054 48.3819 12.46C48.0273 12.8146 47.8281 13.2955 47.8281 13.7969V15.6875H45.9375C45.4361 15.6875 44.9552 15.8867 44.6006 16.2413C44.2461 16.5958 44.0469 17.0767 44.0469 17.5781C44.0469 18.0795 44.2461 18.5604 44.6006 18.915C44.9552 19.2696 45.4361 19.4688 45.9375 19.4688V30.8125C45.4361 30.8125 44.9552 31.0117 44.6006 31.3662C44.2461 31.7208 44.0469 32.2017 44.0469 32.7031C44.0469 33.2045 44.2461 33.6854 44.6006 34.04C44.9552 34.3946 45.4361 34.5938 45.9375 34.5938H47.8281V36.4844C47.8281 36.9858 48.0273 37.4667 48.3819 37.8213C48.7364 38.1758 49.2173 38.375 49.7188 38.375C50.2202 38.375 50.7011 38.1758 51.0556 37.8213C51.4102 37.4667 51.6094 36.9858 51.6094 36.4844V34.5938H53.5V36.4844C53.5 36.9858 53.6992 37.4667 54.0538 37.8213C54.4083 38.1758 54.8892 38.375 55.3906 38.375C55.8921 38.375 56.3729 38.1758 56.7275 37.8213C57.0821 37.4667 57.2813 36.9858 57.2813 36.4844V34.5938C58.5066 34.5888 59.6975 34.1871 60.6755 33.4489C61.6535 32.7106 62.3661 31.6754 62.7067 30.4983C63.0473 29.3212 62.9975 28.0655 62.5648 26.919C62.132 25.7726 61.3397 24.7971 60.3062 24.1386ZM55.3906 19.4688C55.8921 19.4688 56.3729 19.6679 56.7275 20.0225C57.0821 20.3771 57.2813 20.858 57.2813 21.3594C57.2813 21.8608 57.0821 22.3417 56.7275 22.6962C56.3729 23.0508 55.8921 23.25 55.3906 23.25H49.7188V19.4688H55.3906ZM57.2813 30.8125H49.7188V27.0312H57.2813C57.7827 27.0312 58.2636 27.2304 58.6181 27.585C58.9727 27.9396 59.1719 28.4205 59.1719 28.9219C59.1719 29.4233 58.9727 29.9042 58.6181 30.2588C58.2636 30.6133 57.7827 30.8125 57.2813 30.8125Z" fill="#9467FE"/>
</svg>
