<svg width="232" height="103" viewBox="0 0 232 103" fill="none" xmlns="http://www.w3.org/2000/svg">
<path d="M97.1989 29.7681L97.3329 30.5381L95.8967 30.7702L95.6815 32.3914H97.4442L99.7656 32.2196L100.966 31.1005L99.6826 30.706L98.9767 30.0795L97.9217 28.7621L97.4442 26.8635L95.4607 27.1787L94.9115 27.8468V28.5885L95.857 29.1169L97.1989 29.7681Z" fill="#9467FE" fill-opacity="0.5"/>
<path d="M95.5362 30.3965L95.6268 29.3755L94.4906 28.9905L92.8638 29.2773L91.6635 30.7834V31.7686H93.0695L95.5362 30.3965Z" fill="#9467FE" fill-opacity="0.5"/>
<path d="M61.7557 36.4037L62.386 36.0923L62.5823 35.4375L63.424 35.3884L63.7638 34.8354L62.9749 34.7014L62.3068 34.7146L61.9388 35.4375H60.2251V36.1414H60.6384C60.6384 36.1414 60.6686 36.2848 60.6913 36.4811L61.7557 36.4037Z" fill="#9467FE" fill-opacity="0.5"/>
<path d="M58.4039 35.4355L57.8641 35.9923L57.7886 36.6679L59.0569 36.5849L59.1569 35.9036L58.4039 35.4355Z" fill="#9467FE" fill-opacity="0.5"/>
<path d="M189.572 69.3991L185.899 69.484L185.75 67.9138L186.347 68.1176L187.789 67.9874L187.639 66.5455L183.64 66.5795L182.557 65.449L182.614 64.8469L177.471 61.2158L176.191 62.0009L183.555 69.0537L184.597 69.3255V69.7086H183.206L183.555 70.5862L192.575 70.8957L189.572 69.3991Z" fill="#9467FE" fill-opacity="0.5"/>
<path d="M195.998 61.5329L195.372 61.331L195.079 60.1174H194.171L193.594 61.3366L192.905 61.8216L187.685 64.0543V66.2511L189.421 68.061H193.815L194.379 66.9343L195.372 66.2266V65.7094L195.998 65.3999V61.5329Z" fill="#9467FE" fill-opacity="0.5"/>
<path d="M199.244 65.4001L196.604 66.2003L196.657 66.6609H195.998V69.5276H197.329L197.146 67.7007L198.182 68.0027V69.2823L199.28 69.2257L199.244 65.4001Z" fill="#9467FE" fill-opacity="0.5"/>
<path d="M221.48 82.7574L220.754 80.4436L218.066 78.6356L217.857 75.1819L216.683 73.5984V80.1152H211.125V76.9087L210.808 76.8899L209.926 76.4803L209.845 74.7704L211.125 74.9799V73.1927L209.9 72.6133H206.505L204.055 75.348H203.072V74.4855L200.114 74.6497L195.481 78.7941L193.014 78.8356L190.272 80.3058L190.1 86.7453L188.428 87.9984V89.1308L196.427 86.9755L202.889 86.7755L205.282 90.9162L212.633 91.1143L219.716 85.8828L221.48 82.7574Z" fill="#9467FE" fill-opacity="0.5"/>
<path d="M206.252 94.1074L208.853 94.3169L210.944 93.4205L211 92.1673L208.694 91.9729L206.252 94.1074Z" fill="#9467FE" fill-opacity="0.5"/>
<path d="M231.254 88.4533L230.173 88.6194L230.145 86.7019L228.156 86.8019L227.891 89.8008L226.146 90.735L222.905 91.0823L217.715 93.9849L216.845 94.553V95.5231L219.536 95.206L226.138 92.0316L227.99 91.0672L229.979 90.3764L232 89.4856L231.254 88.4533Z" fill="#9467FE" fill-opacity="0.5"/>
<path d="M220.691 72.2227V71.3244H219.317L219.093 68.6067L218.251 68.3047L216.683 69.1087V70.0863L217.998 69.99V72.2227H220.691Z" fill="#9467FE" fill-opacity="0.5"/>
<path d="M210.842 67.0514L209.164 67.0929L209.304 65.7171L207.697 64.9753L205.44 66.7607L206.96 68.2309L210.255 68.6065L211.125 68.9651V66.9325L210.842 67.0514Z" fill="#9467FE" fill-opacity="0.5"/>
<path d="M211 71.5261L211.125 71.5185V70.0691H210.938L211 71.5261Z" fill="#9467FE" fill-opacity="0.5"/>
<path d="M162.931 60.5459L163.565 61.8802L165.83 61.2159L166.058 59.372L164.252 59.0964L162.931 60.5459Z" fill="#9467FE" fill-opacity="0.5"/>
<path d="M136.271 76.0669L133.182 75.7498V77.639L134.288 78.6487L133.442 79.6697L132.185 80.804V82.8838L133.905 84.1841L135.45 82.227L138.483 78.7355L139.935 73.2473H138.087L136.271 76.0669Z" fill="#9467FE" fill-opacity="0.5"/>
<path d="M199.905 70.2769H198.876V70.7034L199.667 70.8959L199.905 70.2769Z" fill="#9467FE" fill-opacity="0.5"/>
<path d="M195.387 70.8958H194.171V71.4129H195.387V70.8958Z" fill="#9467FE" fill-opacity="0.5"/>
<path d="M197.1 71.413H197.842V70.962L198.395 70.8959V70.4524H197.198L196.706 70.8959L195.998 71.413V71.8716L197.1 71.7905V71.413Z" fill="#9467FE" fill-opacity="0.5"/>
<path d="M200.173 71.8356H201.371V71.343L202.2 71.4128L202.09 70.5862L200.73 70.7523L200.605 71.2864L199.078 71.4128H199.008V72.2376H200.173V71.8356Z" fill="#9467FE" fill-opacity="0.5"/>
<path d="M212.359 25.0895L214.582 24.7309L212.88 23.8004L212.942 23.0871L217.681 23.6853L218.578 23.0871L212.202 20.9771L211.168 20.9355V26.203L212.359 26.1426V25.0895Z" fill="#9467FE" fill-opacity="0.5"/>
<path d="M161.051 60.0986L162.491 60.3647L163.829 58.853H160.079L161.051 60.0986Z" fill="#9467FE" fill-opacity="0.5"/>
<path d="M178.392 60.1779L185.507 65.5359L185.879 64.5885L180.098 58.1321L180.704 56.2448L183.752 58.9587L185.446 59.0946L187.685 57.9264L187.322 56.1693L183.614 53.8385L183.468 51.721L184.523 50.6094L186.375 51.0737L186.241 52.0683L187.302 53.3629L188.249 52.8288L187.728 51.3001L192.963 49.8243L195.262 48.3201L194.9 45.6005L190.351 41.8392L190.266 38.778H192.286L198.58 42.5412L200.358 42.1713L199.163 40.9616L195.8 39.3517L196.008 36.9549L199.999 36.9624L200.32 33.9975L198.797 32.433L199.703 31.6648L201.637 33.1973L202.27 32.5481L199.748 30.3173L193.579 29.7341L192.754 28.4376L194.539 26.4352L195.955 27.2694L200.228 27.5581L205.606 24.7385V20.7129L198.618 20.4298L191.304 24.1667V35.1733H185.752V19.0427L183.387 18.7596L180.811 18.6954L178.456 20.5619L177.473 20.5015L174.347 18.6803H165.137L160.872 16.676L152.319 17.0988L145.84 19.3918L145.879 22.0303L143.87 22.504L143.424 19.8561L142.673 18.9408L140.442 18.5029L139.918 20.0882L140.572 21.3886L132.591 20.9734L128.792 22.353L128.213 21.0451L127.248 21.2414L126.552 22.6927L124.561 23.9175L119.697 23.8156L119.467 22.9682L124.568 22.7984L125.604 22.0944L119.467 19.8561L113.947 19.9882V22.7833L115.328 22.0227H116.283V22.9682L113.947 24.0987V25.048H113.331V25.3368L115 25.9501L115.13 27.2203L112.743 29.9946L108.613 29.9644L108.351 29.3001L110.931 28.264L110.955 25.0499H108.389V21.4773L107.802 21.7151L106.226 23.9194L103.434 24.7687L102.268 25.7727L102.538 26.9296L103.978 27.0844L104.848 28.783L107.29 27.9997L107.72 30.2607H106.952L104.942 30.0286L102.706 30.3249L100.539 32.7255L97.4197 33.118L96.9799 35.2016L98.301 35.4432L97.9255 36.7888L94.8247 36.3094L91.9994 36.7888L91.4106 38.0269L91.8862 40.6238L93.5659 41.2352L96.3383 41.2277L98.2293 41.0862L98.8068 39.9066L101.742 36.9209L103.68 37.2285L105.577 35.8773L105.933 36.9341L110.614 39.4216L110.034 40.0236L107.926 39.9255L108.723 40.8333L110.034 41.0597L111.557 40.5615L111.527 39.1139L112.216 38.8497L111.655 38.3892L108.528 37.0247L107.72 35.1978H110.31L111.136 35.8376L113.382 37.3607L113.463 39.197L115.796 41.1352L116.659 38.4779L118.265 37.7815L118.563 39.9594L120.133 41.3164L124.866 41.2598L126.271 42.077V44.0265L124.549 45.257H119.746L116.834 43.5472L113.769 43.7869V45.257H112.784L111.74 44.6682L106.428 43.6038V40.9031L99.6769 41.3145L97.5858 42.194H94.9247L93.6036 42.0902L90.3556 43.5113V46.1705L83.7123 49.9432L84.2729 51.5417H85.6109L85.2712 53.0685L84.3276 53.3516L84.2729 57.3508L89.997 62.4785H92.492L92.6694 62.1614H97.1423L98.4483 61.2253H100.987L102.391 62.3275L106.182 62.6333L105.684 66.6003L109.895 72.4453L107.673 75.7725L107.83 77.339L109.593 78.7073V82.4818L111.876 84.9032V88.0436H118.667L123.768 83.9369L125.365 81.6967L126.018 81.5835H120.811V57.4753H126.365V58.6586L136.154 63.6599L141.514 57.6376L140.338 57.1998L133.929 58.2604L132.266 57.615L125.535 47.6445L126.003 47.2123L132.689 53.5781L132.857 55.5465L134.38 56.7657L137.557 56.6072L144.102 52.8722L146.17 51.821L146.136 50.5226L143.936 50.3093C143.936 50.3093 136.239 47.4576 136.239 47.3331C136.239 47.201 136.285 44.8909 136.285 44.8909H137.989L138.24 46.5763L141.799 48.188L145.881 48.3409L154.699 49.477L156.777 50.5075V52.0928L156.509 54.2556L158.604 56.9544V34.7373H164.158V35.9207L175.817 41.8807L164.158 47.8426V57.4923L164.75 53.9688L166.27 51.4209L168.697 50.7038L172.983 51.0303L178.386 54.7935V60.1779H178.392ZM125.446 39.3178V39.3102L121.554 39.1781L120.401 39.3102V37.2304L121.273 36.4585L122.207 36.2264L124.283 36.0433L124.725 35.4904L125.572 35.8187L125.686 37.7174L127.952 38.4496L128.147 39.3178H125.446ZM140.372 40.8012H140.365L139.676 41.307L138.106 41.2145L137.806 40.8446L135.337 40.6936L135.511 40.0783L136.83 39.197V38.4496L134.32 37.0247L134.207 35.1978L134.718 34.3051L136.743 34.1579L138.459 34.7222L138.54 35.6659L136.081 35.5583L135.964 36.4283L139.027 38.0288V39.2083L140.367 39.9651V40.8012H140.372Z" fill="#9467FE" fill-opacity="0.5"/>
<path d="M205.312 28.5546L210.255 31.7271L211.825 31.0892L211.238 28.9679L210.919 28.7339L205.61 26.7258L205.312 27.0938V28.5546Z" fill="#9467FE" fill-opacity="0.5"/>
<path d="M127.409 79.4698L128.758 78.2167L131.595 75.1461L131.004 70.4939L129.798 68.8218L126.363 70.5788V81.5232L127.409 81.342V79.4698Z" fill="#9467FE" fill-opacity="0.5"/>
<path d="M68.6556 30.138L67.9743 29.8096V31.9347L68.5613 31.778L68.6556 30.138Z" fill="#9467FE" fill-opacity="0.5"/>
<path d="M67.9743 21.2282V23.3967H69.4615L70.3523 22.07L68.5613 21.717V20.9263L67.9743 21.2282Z" fill="#9467FE" fill-opacity="0.5"/>
<path d="M68.3404 35.0148C68.3404 35.0148 68.3517 35.0299 68.3517 35.0431L69.1123 34.994L69.1689 33.8654L67.9724 33.437V33.6975H64.9112L64.9999 34.2108L68.3404 35.0148Z" fill="#9467FE" fill-opacity="0.5"/>
<path d="M59.038 18.4238L56.8261 19.3259L56.9922 21.5208L54.6991 21.2453L54.35 20.0355L56.5223 18.4634L52.5495 18.3087L51.3964 18.5729L50.8887 19.6354L52.3948 19.8336L52.0928 21.0131L49.5487 21.1301L49.1543 21.9058L45.442 21.987C45.442 21.987 45.3571 20.3413 45.2118 20.3413C45.0551 20.3413 48.1012 20.3035 48.1012 20.3035L50.3018 18.6144L49.0996 18.1407L47.5029 19.3655L44.8513 19.2485L43.2641 17.5198H39.8689L36.317 19.6015H39.5669L39.8689 20.3488L39.0158 20.9735L42.613 21.0565L43.1622 22.0738L39.114 21.9455L38.9158 21.166L36.3736 20.73L35.0223 20.1488L29.0321 20.1941L27.1863 21.602L25.9294 21.517L24.5366 20.8848L24.0327 20.7678V25.0481H18.2349V19.9128H12.8184L8.4305 22.2606L5.48633 22.6154L4.13693 23.4402L6.22804 23.6836V24.3423H1.75329L0 25.3218L2.23832 26.8146L8.37765 26.8562L9.2307 26.1409H14.3603L16.2118 27.4356L16.0985 29.4417L17.6593 30.5741L16.3571 31.3064L16.6496 33.9486L12.0182 38.3724V42.5263L14.5038 43.4718V47.1954L16.9157 50.4019L18.8426 50.6322L19.0899 49.5357L16.8138 46.7613L16.3665 44.0606H17.7159L18.2916 46.8387L21.6151 50.6378L20.7243 51.8627L22.8531 54.3992L28.0998 55.4202V54.754L30.1909 54.9805L29.9984 56.1638L31.6384 56.3884L34.1881 56.947L37.7891 60.1592L42.3752 60.4291L42.8244 63.377L39.6764 65.0963L39.5197 67.714L39.0838 69.3257L43.6208 73.7929L43.9718 75.3122C43.9718 75.3122 45.6251 75.667 45.8081 75.667C46.0101 75.667 49.5148 77.7505 49.5148 77.7505V85.8111L50.7604 86.098L49.8903 89.8159L51.9909 92.0071L51.6172 95.6967L54.3764 99.526L57.9377 101.963L61.499 102.01L61.8557 101.117L59.2399 99.3845L59.3947 98.5182L59.8741 97.4519L59.976 96.3856L58.185 96.3422L57.2677 95.4646L58.7625 94.3398L58.9663 93.5056L57.313 93.1432L57.4074 92.3543L59.7533 92.0826L63.324 90.7407L64.5262 89.012L68.2687 85.2355L67.4157 82.3008L68.5612 80.7343L72.0018 80.8155L74.3137 79.3849L75.0667 73.6985L75.497 73.2682H73.1002V66.8911L68.9085 66.8609L64.715 65.6115L64.5149 63.26L63.1127 61.3331L59.3419 61.2972L57.1394 58.589L55.3465 57.9133V65.8569H49.5487V57.3056L46.5423 56.8262L43.4962 59.5836L38.7176 58.9494L38.3666 54.7106L34.8619 54.2388L36.2679 52.1684L35.8641 50.97L31.2836 53.3838L28.3942 53.1102L27.3505 51.3305L27.9903 49.4922L29.5869 47.1917L33.2483 45.7309H40.3426L40.3199 47.4294L42.8753 48.3504L42.6639 45.4497L44.4984 44.004L48.2031 42.0922L48.4428 40.7541L49.5506 39.852V38.8536H50.7755L52.1513 37.7345L56.0863 36.0321L55.7371 35.8132L58.3888 33.8429L59.3721 34.0392L59.8193 34.4827L60.829 33.5957L61.0593 33.507L59.9684 33.3899L58.8474 33.0955V32.2349L59.4324 31.8556H60.7554L61.3594 32.0613L61.8727 32.8785L62.1747 32.8426V27.4733H61.9104L62.1747 25.6238V25.352L57.9547 24.5593L56.1769 25.6068V28.8227L52.9949 29.6059L51.7059 31.7008L50.3301 31.8707V29.1964L47.3387 28.8661L45.844 28.1056L45.2382 26.3806L50.5962 23.9158L53.2138 23.2892L53.4686 24.6669L54.9388 24.6084L55.0577 23.9139L56.5808 23.744L56.5977 23.51L55.958 23.2873L55.8013 22.5569L57.6716 22.4286L58.8021 21.5019L58.8851 21.4378V21.4453L59.2248 21.1641L62.1766 20.8735V18.135L59.038 18.4238ZM35.5092 25.7087L32.5519 25.8578L31.9951 25.3331L34.0862 24.8613C34.0862 24.8613 35.4073 24.6764 35.5092 24.6764C35.6074 24.6745 35.5092 25.7087 35.5092 25.7087ZM35.581 22.8589L34.9468 23.4987H32.0027V22.5645V22.4777H33.3124L33.4313 22.1191H35.581V22.8589ZM40.0387 31.4385L38.5044 31.8273L37.5437 30.2571L39.1102 29.6758L40.5256 29.9343L40.0387 31.4385ZM41.7543 37.9307L40.6974 37.4872L40.9446 36.3171L42.3129 35.1432H44.2945L41.7543 37.9307ZM46.2045 38.6007H44.2945L44.5984 37.5835L45.4986 37.508L45.6987 37.1607L47.0689 37.0135V37.9289H47.0764L46.2045 38.6007ZM47.5237 36.0793L46.6253 36.536L45.4967 36.6908C45.4967 36.6908 45.4967 35.2885 45.4967 35.1432H47.5218L47.5237 36.0793ZM49.2279 34.9941L50.1583 35.4358L49.4129 35.9132L48.7051 35.4358L49.2279 34.9941ZM48.0182 36.1699H48.1673L50.4603 36.6908V37.6137H48.5334L48.02 37.023L48.0182 36.1699ZM46.5253 33.6334L47.7653 34.5204L46.5253 34.7563V33.6334ZM45.3665 33.2276V33.7806H45.8799V34.7563H42.277L40.9446 34.4695L41.2749 33.7806L42.9999 33.2276H45.3665Z" fill="#9467FE" fill-opacity="0.5"/>
<path d="M62.1747 24.1969V23.0872L60.3327 23.8591L62.1747 24.1969Z" fill="#9467FE" fill-opacity="0.5"/>
<path d="M66.3701 32.3689L66.5249 32.9219L67.9743 33.439V31.9348L66.3701 32.3689Z" fill="#9467FE" fill-opacity="0.5"/>
<path d="M64.9131 33.6992L64.8546 33.369L65.8171 32.8311V32.0724L64.7923 31.8667L64.5319 32.5707L62.7012 32.8009L62.5087 32.7594V32.8084L62.1747 32.8462V33.6992H64.9131Z" fill="#9467FE" fill-opacity="0.5"/>
<path d="M113.328 24.4007L113.943 24.1025V22.7871L110.959 24.429L110.955 25.0519H113.328V24.4007Z" fill="#9467FE" fill-opacity="0.5"/>
<path d="M206.512 25.6161L205.61 24.7385V24.7404V26.7258L206.512 25.6161Z" fill="#9467FE" fill-opacity="0.5"/>
<path d="M212.142 70.0691L212.091 69.3652L211.125 68.9651V70.0691H212.142Z" fill="#9467FE" fill-opacity="0.5"/>
<path d="M163.829 58.8532H164.163V57.4924L163.96 58.7022L163.829 58.8532Z" fill="#9467FE" fill-opacity="0.5"/>
<path d="M126.363 81.5232L126.014 81.5855H126.363V81.5232Z" fill="#9467FE" fill-opacity="0.5"/>
<path d="M211.168 26.2031L209.364 26.3013V16.5685L218.712 11.7899L209.364 7.00756V6.57349H207.663V26.8259H208.318L210.919 28.734H211.168V26.2031Z" fill="#9467FE"/>
<path d="M20.2921 23.1438H22.2322V0H20.2921V0.492584L9.60815 5.95627L20.2921 11.4181V23.1438Z" fill="#9467FE"/>
<path d="M66.1681 8.64746H64.2261V21.4791L63.1862 20.7808L62.1747 20.8808V23.0871L64.2261 22.2321V31.7912H66.1681V20.0674L76.8502 14.6037L66.1681 9.14382V8.64746Z" fill="#9467FE"/>
<path d="M51.6002 40.8105V63.9543H53.5403V52.2305L64.2243 46.7668L53.5403 41.305V40.8105H51.6002Z" fill="#9467FE"/>
<path d="M75.1516 51.5456L65.802 56.3242L75.1516 61.1047V71.364H76.8502V51.1116H75.1516V51.5456Z" fill="#9467FE"/>
<path d="M110.44 23.1436H112.137V2.89111H110.44V3.32519L101.09 8.10379L110.44 12.8843V23.1436Z" fill="#9467FE"/>
<path d="M214.877 58.3925V57.9565H213.176V78.209H214.877V67.9516L224.226 63.1692L214.877 58.3925Z" fill="#9467FE"/>
<path d="M160.661 36.6907V56.9431H162.357V46.6857L171.709 41.9071L162.357 37.1247V36.6907H160.661Z" fill="#9467FE"/>
<path d="M189.502 23.0098L198.854 18.2312L189.502 13.4507V13.0166H187.807V33.269H189.502V23.0098Z" fill="#9467FE"/>
<path d="M122.86 59.425V79.6775H124.557V69.4182L133.905 64.6396L124.557 59.8572V59.425H122.86Z" fill="#9467FE"/>
</svg>
